<svg xmlns="http://www.w3.org/2000/svg" xml:space="preserve" width="1500" height="1500" data-id="lg_fyvSGuSvjZPmVh6KN3" data-version="1" viewBox="0 0 1500 1500"><path fill="#fafafa" stroke="transparent" d="M0 0h1500v1500H0z"/><g data-padding="20"><g fill="#2d2d2d"><path d="M809.832 924.43H637.957v-14.332q16.045-5.158 30.93-8.88 14.903-3.72 29.218-5.434l5.729-317.407-65.877-12.6V549.16h171.875v14.903q-13.172 3.998-28.646 7.72-15.474 3.738-32.661 5.452v318.549l61.307 11.458Zm-242.91 0H394.458v-15.475q16.046-5.158 31.225-8.308 15.197-3.15 30.083-4.863l5.729-317.407-67.037-12.6V549.16h172.464v14.903q-13.76 3.998-29.234 7.72-15.457 3.738-30.93 5.452v318.549l60.164 11.458Zm158.686-175.32H483.27v-32.662h242.34Z"/><path d="M1005.766 565.776V549.16h162.72v14.903q-15.475 4.57-30.378 8.014-14.885 3.444-30.359 5.158l-.571 347.194H1057.9L839.05 593.851l10.886-3.444v305.377l70.464 11.458v17.187H751.97v-15.474q15.473-5.158 30.653-8.308t30.065-4.863l5.73-317.407-67.02-12.6V549.16h115.155l219.422 331.72-9.745 2.857-5.73-307.074Z"/><g stroke="#fafafa" stroke-width="5.669" paint-order="stroke"><path d="M1181.342 1092.82q3.107-.907 6.169-1.587c3.491-.703 6.96-1.405 10.588-.68 2.856.568 5.396 1.746 7.892 3.197q2.334 1.338 4.511 2.947c.907.703 1.475 1.657 2.108 2.54.84 1.158.319 2.267-.52 3.13a9.52 9.52 0 0 1-8.141 2.97c-4.49-.454-9-.681-13.445-1.588-1.996-.407-3.606-1.632-5.352-2.562a25 25 0 0 0-5.714-2.018c-.77-.204-1.45-.16-2.04.476-.387.409-.93.589-1.429.84a4.535 4.535 0 0 0-2.336 5.623q.478 1.316.523 2.699l.61 15.259.409 11.065c.092 4.466.07 8.956.182 13.423.114 4.717.227 9.434.567 14.148q.407 5.307.43 10.657c0 3.742.25 7.483.363 11.225q.16 5.35.25 10.657c0 .84.044 1.746-.975 2.063-.907.294-1.632-.09-2.177-.794q-.385-.52-1.065-.52c-2.2-.206-3.22-1.34-2.813-3.582 1.157-6.351.499-12.745.589-19.116.092-6.259-.407-12.539-.362-18.797q.045-5.148 0-10.249l-.16-14.421c-.044-3.99.048-7.959-.044-11.949-.09-4.013-.317-8.027-.476-12.04-.045-.998-.272-1.838-1.156-2.518-.997-.793-1.565-2.016-2.517-2.9-1.881-1.77-4.31-2.315-6.62-3.04a52.1 52.1 0 0 1-14.332-6.848c-2.674-1.859-5.51-3.56-7.732-6.032-.815-.907-1.495-1.904-1.021-3.082.523-1.316 1.77-1.837 3.109-2.019 1.246-.159 2.492.023 3.717.34 4.762 1.225 9.32 2.947 13.446 5.625a27.2 27.2 0 0 1 8.277 7.867c.815 1.246 1.7 2.539 3.107 3.288.271.158.543.452.882.295.433-.205.274-.658.251-.999l-.567-9.568c-.454-9.047-1.747-18.048-2.358-27.073-.159-2.539-.59-5.057-.75-7.597a10 10 0 0 0-1.678-4.512 139 139 0 0 0-6.28-9.137c-3.105-4.149-6.304-8.23-9.16-12.539-2.855-4.31-6.213-8.254-9.568-12.221a60.6 60.6 0 0 1-5.192-7.188c-1.453-2.29-3.244-4.376-4.968-6.484-2.129-2.631-3.785-5.579-5.849-8.277-2.108-2.744-4.285-5.442-6.28-8.253-1.995-2.813-4.376-5.352-6.215-8.3-1.268-2.04-2.923-3.877-4.443-5.758a38.6 38.6 0 0 1-4.829-7.755c-1.679-3.63-4.218-6.712-6.326-10.068-2.744-4.398-6.803-7.573-10.091-11.427-3.355-3.924-7.754-6.326-12.038-8.98-2.36-1.45-4.604-3.084-6.984-4.512-1.453-.883-3.062-1.496-4.535-2.337-2.2-1.246-3.97-3.15-6.463-3.99-4.67-1.564-9.183-3.558-14.263-3.717-4.692-.16-9-1.951-13.31-3.696-2.584-1.044-5.283-1.634-7.98-2.245-3.742-.862-7.324-2.177-10.997-3.288a130 130 0 0 0-13.468-3.29 63.5 63.5 0 0 1-11.476-3.672 220 220 0 0 1-12.379-5.238c-3.514-1.654-6.825-3.695-10.293-5.372a50 50 0 0 0-10.884-4.014q-1.565-.386-3.015-1.021c-1.09-.43-1.453-1.45-1.52-2.47s.727-1.475 1.587-1.861c1.814-.838 3.74-.543 5.601-.566q10.43-.114 20.883.658 6.576.498 13.129.883c4.806.273 9.568.839 14.352 1.135 7.097.453 14.193.633 21.247 1.61 4.488.635 8.796 2.018 13.15 3.356 2.722.838 5.283 1.949 7.914 2.925 4.397 1.632 8.298 4.24 12.29 6.598 3.627 2.153 6.732 4.942 10.021 7.573-1.111-1.951-2.584-3.606-4.036-5.306-3.31-3.923-7.415-7.029-10.861-10.793-.975-1.066-2.358-1.747-3.537-2.631-2.29-1.722-4.31-3.763-6.598-5.487-1.133-.862-2.381-1.45-3.583-2.063-3.197-1.632-5.94-3.855-8.73-6.076-2.268-1.815-4.807-3.266-7.39-4.604a29.4 29.4 0 0 1-10.182-8.342 61.3 61.3 0 0 0-10.385-9.775 47.6 47.6 0 0 1-5.305-5.282c-3.606-4.037-7.62-7.642-11.61-11.292-3.719-3.38-7.234-6.984-10.885-10.455a123 123 0 0 0-9.047-7.754c-5.918-4.603-11.995-9.046-17.049-14.624-3.221-3.536-6.305-7.189-9.57-10.68-.997-1.066-1.973-2.198-3.037-3.197-.523-.498-.977-1.178-.613-1.814a1.93 1.93 0 0 1 2.13-.997q5.76 1.224 11.315 3.22 3.787 1.315 7.597 2.517c7.64 2.471 15.327 4.76 22.538 8.342 4.534 2.268 9 4.741 13.038 7.801 5.034 3.788 10.247 7.391 14.782 11.836a111 111 0 0 1 10.726 11.926 189 189 0 0 0 10.839 13.13c2.085 2.29 3.854 4.83 5.78 7.256 3.878 4.919 7.53 10.022 12.155 14.33a54.4 54.4 0 0 1 9.523 11.314 249 249 0 0 1 7.685 13.605c2.112 4.036 3.493 8.457 6.214 12.2.364.498.635 1.11 1.407 1.405-.069-1.134-.794-1.882-1.043-2.789-1.157-4.422-2.995-8.616-4.513-12.924-1.066-3.04-1.632-6.236-2.856-9.23-1.634-3.968-2.767-8.117-4.31-12.084-2.267-5.85-3.468-11.972-5.054-17.982-.908-3.401-2.065-6.71-2.608-10.204a57 57 0 0 1-.862-10.838c.07-2.22.045-4.42.34-6.62q.226-1.68 1.02-3.13c.748-1.316 1.904-1.45 2.856-.272 1.09 1.316 1.702 2.903 2.223 4.445 2.72 8.026 6.167 15.803 8.753 23.876q2.72 8.389 6.075 16.507a113.4 113.4 0 0 1 6.032 19.41q1.43 6.19 3.197 12.311c1.769 6.123 3.084 12.38 4.286 18.638q.907 4.605 1.542 9.23.294 2.492.25 4.988a5.94 5.94 0 0 0 .794 3.037c1.881 3.424 3.627 6.94 5.621 10.316 1.022 1.724 2.45 3.244 3.765 4.786.703.815 1.179 1.77 1.679 2.699 1.812 3.513 4.557 6.37 6.71 9.635 1.929 2.903 3.583 6.01 5.873 8.662 1.54 1.791 3.107 3.56 4.286 5.625 1.791 3.173 3.379 6.461 5.556 9.409q2.108 2.833 4.353 5.556a54.4 54.4 0 0 1 4.92 7.368c1.995 3.402 4.49 6.44 6.87 9.546.975 1.269 2.017 2.54 2.857 3.922 2.29 3.787 5.352 6.94 8.095 10.385a225 225 0 0 1 8.684 11.881c2.698 3.877 5.601 7.574 8.504 11.315l1.881 2.449c.317-1.044 0-1.904-.09-2.698-.658-5.556-1.475-11.11-2.065-16.665-.498-4.74-1.156-9.456-1.655-14.195a367 367 0 0 0-1.54-12.107c-.139-1.044-.727-1.814-1.315-2.676-2.2-3.289-5.126-5.965-7.575-9-1.178-1.455-2.766-2.43-4.216-3.54q-1.634-1.202-3.04-2.631a86.5 86.5 0 0 1-8.457-9.839 116 116 0 0 1-8.254-13.629c-2.22-4.308-4.24-8.728-6.394-13.081-1.45-2.948-3.038-5.806-4.42-8.798-1.022-2.178-1.815-4.445-2.654-6.69a61.3 61.3 0 0 1-2.81-10.385c-.25-1.316-.546-2.607.203-3.923q.907-1.679 2.631-1.223c3.173.84 6.347 1.722 9.41 2.902q4.101 1.518 7.731 3.967c2.721 1.86 5.01 4.219 7.21 6.621a61.3 61.3 0 0 1 9.66 14.626c1.088 2.222 2.132 4.466 3.378 6.665l-1.632-9.092-2.88-15.85c-.975-5.35-1.815-10.748-3.016-16.053a1566 1566 0 0 1-3.969-17.866c-1.473-6.735-2.856-13.47-4.398-20.182-1.044-4.58-2.404-9.115-3.356-13.717-.566-2.766-1.495-5.418-2.063-8.163-.613-2.903-3.085-4.512-4.966-6.508a57 57 0 0 1-5.532-6.551 27.2 27.2 0 0 0-9.07-7.575c-4.626-2.653-9.206-5.35-12.924-9.229q-1.43-1.428-2.517-3.105a9.07 9.07 0 0 0-3.832-3.583c-2.766-1.36-5.464-2.81-8.277-4.081-4.739-2.108-9.68-3.56-14.626-5.056-3.264-.976-6.347-2.427-9.454-3.855-3.991-1.836-8.14-3.31-12.199-4.967a63.5 63.5 0 0 1-15.26-8.615 12.46 12.46 0 0 1-3.831-4.853c-.589-1.316.747-3.083 2.516-3.242 2.313-.225 4.627.022 6.917.363 6.643.997 12.833 3.47 19.16 5.557 3.333 1.087 6.664 2.22 9.816 3.807 1.974.975 3.878 2.109 5.806 3.175q3.764 2.063 7.437 4.263l2.856 1.791-1.835-3.537a74.8 74.8 0 0 0-9.184-13.969 170 170 0 0 1-8.027-10.452 216 216 0 0 0-10.112-12.97l-3.289-4.081c-.974-1.179-2.085-2.312-3.082-3.514a140 140 0 0 0-13.832-14.603 123 123 0 0 1-11.995-12.085c-3.107-3.652-6.1-7.415-9.637-10.702-2.313-2.155-4.898-3.946-7.278-5.987-1.86-1.587-3.833-3.06-5.691-4.67-2.041-1.769-4.444-3.062-6.78-4.445-2.041-1.2-4.398-1.383-6.35-2.676-.543-.363-1.02-.815-1.564-1.133-.838-.476-1.473-1.087-1.177-2.109.34-1.133 1.291-1.587 2.38-1.54q2.425.135 4.76.905a40.9 40.9 0 0 1 10.975 5.76c3.514 2.493 7.665 3.833 11.407 5.918 4.057 2.29 8.502 3.855 12.492 6.257a140 140 0 0 1 13.424 9.003 137 137 0 0 1 13.49 12.334c2.223 2.245 4.15 4.786 6.145 7.256a152 152 0 0 0 7.574 8.663 97 97 0 0 1 6.848 8.48l3.56 4.943c2.198 2.925 4.692 5.6 6.439 8.843a81 81 0 0 1 3.673 8.07q.999 2.587 2.245 5.058c1.405 2.631 2.108 5.51 3.13 8.298.974 2.63 2.336 5.148 3.196 7.801 1.293 3.99 2.268 8.094 3.379 12.13.112.453.159.907.543 1.385.817-1.408.545-2.903.545-4.31.068-6.394-.091-12.765-.839-19.137a116 116 0 0 0-2.427-14.738 38.6 38.6 0 0 0-4.604-10.498 327 327 0 0 1-6.958-11.905c-1.724-3.15-3.448-6.461-5.897-9.139-3.15-3.422-4.83-7.57-6.62-11.699a4.5 4.5 0 0 1-.227-2.471c.136-1.087 1.474-1.633 2.63-1.087a28.4 28.4 0 0 1 10.793 8.843 145 145 0 0 1 8.344 12.514c1.428 2.428 2.903 4.83 4.036 7.417.907 2.063 1.7 4.171 2.721 6.212 1.54 3.107 2.766 6.349 3.424 9.772.68 3.628 1.814 7.189 1.769 10.906a192 192 0 0 1-1.021 20.726c-.294 2.993-.68 5.963-1.428 8.888-.431 1.7-.907 3.424-1.044 5.146-.18 2.267.862 4.015 2.813 5.352 3.491 2.381 7.233 4.285 10.814 6.53 2.7 1.7 5.08 3.763 6.94 6.461 1.768 2.586 3.831 4.989 5.78 7.438.092.137.295.182.546.341.249-1.61-.68-2.835-.997-4.196-1.27-5.486-2.79-10.928-4.016-16.438-1.54-6.939-2.697-13.968-4.329-20.883q-1.86-8.162-4.24-16.19c-2.178-7.256-4.082-14.602-6.145-21.903-1.475-5.239-3.311-10.407-4.49-15.714-.974-4.353-2.38-8.594-3.334-12.947a86.5 86.5 0 0 0-4.714-14.626 163 163 0 0 1-5.487-15.803 97 97 0 0 0-4.674-12.176 322 322 0 0 0-7.911-15.803c-3.152-6.055-6.599-11.973-9.025-18.413a36.35 36.35 0 0 0-8.185-12.085 24.9 24.9 0 0 1-5.76-10.271q-1.541-5.669-2.971-11.382c-1.518-6.1-2.948-12.2-4.51-18.278-1.247-4.85-2.995-9.59-3.788-14.578a114 114 0 0 1-1.587-13.853c-.182-5.215-.545-10.43-.25-15.67.25-4.353.09-8.751.884-13.082.138-.703.228-1.61.908-1.701.658-.09.725.884.883 1.405.817 2.925 1.816 5.806 2.562 8.73.545 2.086 1.499 4.06 2.201 6.1a111 111 0 0 1 4.057 13.627q1.77 8.55 4.151 16.961c.815 2.834 2.223 5.487 3.265 8.253a95 95 0 0 1 4.24 14.332c.703 3.513 1.86 6.96 1.927 10.587.046 2.063-.34 4.196-.135 6.19.363 3.56-.092 7.143.635 10.634.25 1.247.225 2.494.25 3.742.044 3.514 2.175 6.214 3.331 9.295 1.61 4.333 4.445 7.96 6.667 11.928l3.242 5.964c.499-.363.364-.817.364-1.203-.07-4.488.657-8.91 1.338-13.33.792-5.285 1.36-10.523-.16-15.783-.727-2.54-1.791-4.943-2.516-7.483a36.4 36.4 0 0 1-1.428-8.73 140 140 0 0 0-1.928-17.368c-.499-2.97-.566-5.962-.68-8.98q-.205-6.348 1.066-12.538c.882-4.263 1.7-8.526 3.288-12.583a27.2 27.2 0 0 1 4.397-7.166 102 102 0 0 1 8.117-9.047c.319-.317.568-.817 1.134-.613.568.204.703.703.75 1.226.543 5.621 1.587 11.155 2.651 16.687.545 2.813 1.497 5.511 1.95 8.344.908 5.51 1.837 11.02 2.246 16.6.225 3.127.727 6.234.793 9.386.091 3.877-.816 7.572-1.904 11.29-1.36 4.627-3.673 8.868-5.011 13.492-1.385 4.695-3.583 9.093-5.601 13.536q-.499 1.135-.862 2.337c-.385 1.223-1.134 1.995-2.448 2.13-.545.047-.612.409-.68.862-.727 4.989-1.814 9.91-2.63 14.875-.477 2.97-.975 6.076-.07 9.07.613 2.018 1.544 3.922 2.314 5.895q3.424 8.843 6.984 17.664c1.54 3.808 2.879 7.685 4.42 11.495.728 1.791 1.588 3.56 2.223 5.374 1.86 5.262 3.718 10.52 5.079 15.962q1.769 6.827 3.923 13.582c1.792 5.781 3.9 11.474 5.193 17.414.203.93.634 1.814 1.042 2.948.862-2.38.976-4.717 1.475-6.937 1.156-5.24 2.402-10.455 2.743-15.85a22 22 0 0 0-3.13-13.514c-2.152-3.492-4.738-6.734-6.234-10.61a86.5 86.5 0 0 1-3.991-14.083c-.341-1.836-.386-3.673-.568-5.487-.25-2.45-.566-4.943-.384-7.415.363-4.966.543-9.952 2.29-14.716a45.4 45.4 0 0 1 5.397-9.75c1.61-2.38 3.015-4.898 4.692-7.186 1.928-2.654 3.22-5.646 4.92-8.686.387 1.316-.34 2.133-.747 2.835-2.11 3.447-3.787 7.142-6.144 10.453-2.065 2.903-3.698 6.075-5.512 9.115-1.632 2.698-1.949 5.78-2.516 8.753a56.8 56.8 0 0 0-.272 18.364c.727 5.24 1.655 10.5 3.9 15.398a59 59 0 0 0 5.056 8.729l4.128 6.075q.18.296.271.637c.135.431.09 1.134.589 1.111.613-.022.794-.727.884-1.27 1.226-6.825 2.858-13.582 3.514-20.497.388-4.081.273-8.232.363-12.336.047-2.018.16-4.059.025-6.075q-.319-4.83-.364-9.66c0-1.928.16-3.877.113-5.806q-.135-7.617-.364-15.214c-.112-3.536-.225-7.096.092-10.634.114-1.179-.272-2.38 0-3.583.045-.203 0-.476-.25-.589-.543-.226-.565.476-.974.544l1.45-5.736c.115-.409.046-1.089.728-.975.588.09.498.703.476 1.156-.07 3.13-.274 6.258-.227 9.387q.045 6.508.43 13.016c.293 4.692.385 9.387.567 14.08.182 4.58.045 9.16.52 13.718q.953 9 .32 17.98a95 95 0 0 1-2.178 15.896c-.34 1.337-.364 2.744-.566 4.262 1.021-.93 1.473-2.086 2.13-3.083 1.361-2.086 2.834-4.104 4.105-6.259a65.8 65.8 0 0 0 7.89-20.905c1.496-7.46 1.905-14.943 1.61-22.515-.136-3.22-.045-6.463-.204-9.683a159 159 0 0 1-.09-11.36c.068-2.994-.294-5.987.499-8.934.249-.883.635-1.496 1.564-1.745.883-.25 1.406.225 2.063.77 1.95 1.633 2.562 3.922 3.265 6.145 1.246 4.059 2.539 8.118 3.333 12.29.703 3.674 1.157 7.392 1.565 11.111.364 3.332.703 6.688 1.632 9.953.907 3.197.997 6.508.589 9.772-.272 2.155-.225 4.378-.905 6.463a27.2 27.2 0 0 1-5.716 10.59q-2.584 2.786-5.1 5.622c-3.765 4.24-8.278 7.619-12.743 11.065q-3.266 2.472-5.601 5.85c-.566.84-1.134 1.724-2.198 2.041-.658.182-.658.703-.636 1.224.272 5.578-1.09 10.908-2.494 16.213-1.18 4.42-2.472 8.798-3.628 13.24-.363 1.386.272 2.722.634 4.06q.727 2.88 1.497 5.738l1.385 4.647q1.675 5.873 3.219 11.746c1.155 4.604 2.129 9.274 3.31 13.876 1.268 4.988 2.88 9.91 3.99 14.943.951 4.375 2.38 8.638 3.243 13.016.882 4.535 2.312 8.931 3.332 13.445 1.066 4.625 2.359 9.182 3.4 13.83 1 4.535 2.133 9.049 3.175 13.584 1.293 5.576 2.088 11.268 3.493 16.801.25.997.635 1.021 1.269.611 1.883-1.201 3.697-2.517 4.355-4.829l.249-.498c2.402-3.062 1.61-6.304.384-9.456-2.267-5.85-5.168-11.427-7.662-17.188a84 84 0 0 1-4.196-11.29c-.793-2.835-1.722-5.646-2.29-8.526-1.111-5.579-1.859-11.248-.52-16.916a15.87 15.87 0 0 1 5.145-8.547 190 190 0 0 1 10.385-8.255 24.9 24.9 0 0 1 9.388-4.874c1.022-.227 1.496.158 1.655 1.111a4.5 4.5 0 0 1 0 2.064 68 68 0 0 1-5.85 15.145q-3.015 5.533-6.122 11.02a27.2 27.2 0 0 0-3.696 13.899c.023 2.72.748 5.352 1.247 8.028.567 3.13 1.337 6.234 1.928 9.364.453 2.29 1.654 4.285 2.357 6.485.75 2.358 1.587 4.693 2.29 7.097.613-2.472.703-4.988.75-7.483.067-3.197.384-6.371.77-9.523.249-2.108.114-4.24.227-6.349q.204-4.014.794-8.003c.838-5.873 2.925-11.43 4.647-17.075q1.747-5.532 2.903-11.268c1.406-7.256 2.357-14.604 4.717-21.653a81.4 81.4 0 0 1 5.395-12.608 126 126 0 0 1 4.649-8.187q2.267-3.469 4.762-6.778a81 81 0 0 1 7.776-9.207 79.6 79.6 0 0 1 11.723-9.296 222 222 0 0 0 18.117-13.468q3.197-2.676 6.03-5.738.84-1.021 1.588-2.085.817-1.134 1.904-.295c.658.521.954 1.246.34 1.927-2.832 3.22-3.468 7.415-4.987 11.202q-2.041 5.215-3.945 10.52c-1.111 3.085-2.018 6.236-3.264 9.274-2.315 5.646-4.06 11.474-6.735 16.983-1.792 3.696-3.062 7.62-4.558 11.45a448 448 0 0 1-10.838 25.215q-3.56 7.755-7.007 15.554c-1.769 3.969-3.289 8.073-5.578 11.79-2.879 4.672-5.124 9.706-8.186 14.263-1.291 1.928-2.29 4.014-3.558 5.963-2.541 3.924-5.262 7.733-7.732 11.678a94 94 0 0 1-6.396 9.206c-1.654 2.041-2.743 4.489-4.308 6.621a24.9 24.9 0 0 1-7.186 6.984c-.16.09-.319.272-.476.272-2.019.067-1.634 1.201-1.338 2.561.952 4.172 1.926 8.368 2.606 12.608.589 3.74 1.61 7.39 2.268 11.11.817 4.715 2.042 9.387 2.812 14.124.634 3.79 1.383 7.53 2.064 11.317.907 5.033 1.587 10.112 2.447 15.17.907 5.282 1.748 10.564 2.972 15.802.61 2.586 1.61 5.103 1.745 7.824q.045.271.318.747c.748-.997.521-2.085.566-3.015.364-8.163 2.018-16.144 3.81-24.08a152 152 0 0 1 6.961-22.766c1.224-3.06 3.06-5.803 4.852-8.57 2.766-4.262 5.51-8.55 8.594-12.562a49.9 49.9 0 0 1 11.292-10.749c3.401-2.31 7.256-3.626 10.861-5.462.975-.5 1.835-1.226 2.743-1.883.521-.364 1.065-.68 1.655-.272.635.43 1.044.998.862 1.881-.568 2.768-1.201 5.511-1.632 8.3a57 57 0 0 1-1.407 6.485c-1.156 4.308-2.243 8.662-3.74 12.855q-2.654 7.46-5.67 14.761a102 102 0 0 1-8.979 17.8q-3.289 4.989-6.78 9.818c-3.127 4.286-6.19 8.661-9.658 12.698-1.701 2.018-3.04 4.285-4.807 6.258-1.27 1.428-2.042 3.175-2.79 5.101 1.293-.225 2.245-.907 3.22-1.383a116 116 0 0 1 17.256-7.096c4.488-1.406 9.16-2.13 13.854-2.654q4.037-.453 8.094-1.042a22.67 22.67 0 0 1 13.15 2.448c2.563 1.27 2.654 3.832.32 5.466-2.064 1.45-4.037 3.038-6.145 4.42a22.7 22.7 0 0 1-11.268 3.424c-5.489.409-11.022.476-16.464 1.156-3.445.433-6.71-.476-10.067-.52-4.58-.046-9.139-.182-13.4 1.926-.613.294-.748.772-.862 1.315a43.3 43.3 0 0 0-.77 9.503c.045 3.377-.319 6.755.157 10.112.453 3.241.817 6.508 1.385 9.727q.907 5.123 1.087 10.339l.318 8.187q.113 1.427.883 2.606c.408.635.478 1.224-.02 1.792s-.434 1.2-.364 1.834q.635 6.578 1.2 13.13c.477 5.443 1.339 10.84 1.633 16.281l.545 9.636c.023.431-.114 1.021.431 1.201.476.137.68-.384.997-.633 1.702-1.36 2.178-3.426 2.903-5.285a84 84 0 0 1 4.647-10.203 54.4 54.4 0 0 1 12.653-15.1 72.7 72.7 0 0 1 17.89-10.906c4.15-1.814 8.14-3.992 12.177-6.032 2.245-1.134 3.946-.272 3.946 2.267s-.704 5.01-1.362 7.46c-1.655 6.055-5.873 10.091-10.792 13.445-6.236 4.241-12.448 8.504-19.183 11.926q-6.349 3.266-12.471 6.85c-1.405.816-2.45 2.107-3.808 3.084Zm44.262-356.735c-.386-.07-.59.135-.772.34-2.721 2.743-5.963 4.875-9.025 7.21-5.1 3.877-10.498 7.39-15.553 11.36a77 77 0 0 0-14.194 15.08c-2.812 3.784-5.08 7.935-7.37 12.039a74.8 74.8 0 0 0-7.551 20.043c-1.518 6.44-2.154 13.04-3.696 19.478-.883 3.673-2.04 7.278-3.242 10.861-1.066 3.152-2.155 6.304-2.835 9.546q-1.201 5.78-1.495 11.678c-.227 3.877-.658 7.754-.999 11.609-.272 2.994-.25 6.008-.725 8.98-.182 1.156-.204 2.357-.317 3.785a13.7 13.7 0 0 0 3.197-3.877c1.291-2.018 2.54-4.081 3.967-6.008a123 123 0 0 0 6.259-9.32c2.766-4.58 5.828-8.979 8.275-13.763 1.77-3.446 3.947-6.712 5.625-10.203 2.334-4.83 4.33-9.797 6.53-14.694l7.3-16.008c1.77-3.923 3.765-7.755 5.17-11.814 2.108-6.122 4.874-11.972 7.234-17.98 1.746-4.465 3.762-8.798 5.35-13.333q1.928-5.397 4.015-10.724c1.45-3.742 2.697-7.55 3.99-11.337.34-.975.974-1.882.883-2.995Zm-290.822 49.067c.316.432.43.68.612.862q3.242 3.31 6.28 6.802a122.4 122.4 0 0 0 20.043 18.548 130 130 0 0 1 10.386 8.502c3.56 3.22 6.894 6.667 10.454 9.842 4.693 4.171 9.387 8.322 13.717 12.857a59 59 0 0 0 8.049 7.39q3.697 2.676 6.69 6.214a29.4 29.4 0 0 0 10.43 8.547c2.267 1.044 4.49 2.198 6.463 3.765a63.5 63.5 0 0 0 9.546 6.575c1.338.703 2.766 1.338 3.922 2.29 4.761 3.947 9.999 7.279 14.24 11.814 1.926 2.063 4.512 3.4 6.075 5.85.206.317.5.68 1.021.543.023-.09.114-.204.092-.249-1.634-3.356-2.97-6.847-4.943-10.022-2.223-3.538-4.06-7.323-6.394-10.793a63.5 63.5 0 0 0-8.845-10.408 81 81 0 0 1-7.777-8.616c-3.401-4.308-6.575-8.776-10.203-12.9-2.041-2.315-3.99-4.717-6.076-7.03-2.676-2.971-4.92-6.348-7.529-9.388a86.5 86.5 0 0 0-12.017-11.995c-3.536-2.788-7.007-5.668-10.792-8.162a116 116 0 0 0-14.444-8.367 84 84 0 0 0-12.29-4.58c-7.006-2.064-13.83-4.694-20.86-6.666-1.814-.498-3.583-1.246-5.828-1.293Zm147.7 148.018a50.2 50.2 0 0 0-4.784-9.114c-2.335-3.653-5.556-6.644-8.547-9.773q-3.426-3.628-6.917-7.166c-1.201-1.201-2.312-2.63-3.764-3.446-2.448-1.405-4.421-3.446-6.96-4.694-2.018-.997-3.787-2.472-5.828-3.401a102 102 0 0 0-13.264-5.169 72.7 72.7 0 0 0-13.629-3.061c-4.194-.386-8.39-.952-12.628-.952-4.104 0-8.187-.546-12.29-.772-1.768-.09-3.492-.634-5.239-.589-3.105.113-6.167-.476-9.272-.545-3.605-.09-7.188-.454-10.771-.748-3.718-.294-7.46-.294-11.2-.43h-1.837c1.11.794 2.243 1.27 3.355 1.813q5.85 2.903 11.631 5.85c2.63 1.338 5.374 2.472 8.095 3.628 4.944 2.086 9.91 4.06 15.125 5.418 4.739 1.248 9.658 1.838 14.262 3.54 4.739 1.744 9.59 2.992 14.487 4.126 2.564.588 5.058 1.473 7.507 2.402 2.29.885 4.512 1.884 6.962 2.178 4.851.588 9.75 1.021 14.352 2.903 2.584 1.064 5.418 1.564 7.685 3.444 1.203.999 2.496 1.952 3.901 2.63 5.079 2.473 9.638 5.806 14.49 8.641 1.746 1.022 3.378 2.176 5.1 3.265Zm130.016-31.427q-2.562 1.315-4.944 2.45c-4.874 2.267-9.182 5.306-12.787 9.318a124.6 124.6 0 0 0-12.584 17.37 65.8 65.8 0 0 0-7.235 16.415c-1.859 6.349-3.718 12.698-4.874 19.23-.613 3.444-1.746 6.823-2.042 10.316-.34 4.261-.975 8.502-1.246 12.765-.045.77-.589 1.497-.182 2.494 1.111-1.632 1.86-3.334 3.107-4.716 3.333-3.673 6.1-7.777 9.274-11.563 4.149-4.967 7.731-10.362 11.427-15.647a79.6 79.6 0 0 0 6.712-10.996c2.45-5.058 4.49-10.34 6.576-15.555 1.474-3.718 2.766-7.53 4.126-11.315.589-1.655 1.316-3.289 1.655-4.988.59-2.993 1.407-5.918 1.996-8.91.432-2.156.998-4.31 1.066-6.69Zm-128.155-258.008c.339.067.406-.115.498-.274q1.973-4.012 3.855-8.118c1.338-2.968 2.198-6.144 3.4-9.182 1.588-4.036 3.31-8.026 4.49-12.2.726-2.583 1.451-5.145 1.429-7.866q-.07-3.311-.317-6.645c-.294-4.375-.409-8.75-.952-13.104-.545-4.445-1.475-8.82-2.292-13.241-.453-2.496-1.133-4.968-1.54-7.46-.5-3.199-.84-6.396-1.226-9.615-.045-.319 0-.703-.408-.795s-.521.295-.725.546c-1.338 1.632-2.609 3.378-4.06 4.898a29.4 29.4 0 0 0-5.6 8.592 50.2 50.2 0 0 0-2.879 9.82 130 130 0 0 0-1.497 9.727c-.453 3.583-.09 7.164.204 10.747.25 2.902.566 5.826 1.201 8.593.907 3.947 1.226 7.936 1.52 11.926.227 3.174.364 6.396 1.338 9.41 1.52 4.67 3.22 9.295 3.56 14.218Zm6.847 158.924c-.182-1.133-.204-1.95-.454-2.653-1.746-4.627-2.63-9.523-4.694-14.058-1.587-3.514-2.267-7.415-3.99-10.906-1.587-3.175-2.902-6.486-4.332-9.75-1.473-3.424-3.967-6.192-6.144-9.184-2.562-3.514-5.034-7.052-7.732-10.453-3.786-4.76-8.049-9.139-11.632-14.08-2.336-3.22-5.261-5.92-8.048-8.754-1.883-1.904-3.72-3.854-5.693-5.646-1.835-1.677-3.628-3.49-5.646-4.851q-3.491-2.337-7.074-4.604a97 97 0 0 0-10.43-5.939c-4.513-2.087-8.933-4.377-13.333-6.69-.34-.182-.658-.543-1.11-.294-.069.476.272.703.544.907 2.88 1.996 5.51 4.308 8.322 6.416 2.9 2.178 5.305 4.852 7.617 7.597 3.267 3.855 6.394 7.844 10.069 11.313 4.194 3.946 8.547 7.733 12.47 11.995 4.76 5.147 9.07 10.68 13.785 15.872 1.43 1.565 2.631 3.358 3.992 4.968 2.13 2.514 3.877 5.282 5.85 7.866 2.198 2.903 4.263 5.92 6.62 8.707a79.6 79.6 0 0 1 7.777 10.522c3.13 5.215 5.626 10.814 8.98 15.872 1.246 1.881 2.45 3.854 4.308 5.803Zm65.96 183.888-.5-4.082a38.6 38.6 0 0 0-3.968-14.033q-1.497-2.836-2.29-5.943a104 104 0 0 0-4.375-13.263 99.7 99.7 0 0 0-8.163-16.213 49.9 49.9 0 0 0-10.113-11.427c-3.718-3.107-8.343-4.535-12.698-6.394-.727-.319-1.679-1.134-2.29-.613-.727.635.25 1.61.294 2.45l.045.271a63.5 63.5 0 0 0 4.355 13.423c1.496 3.288 3.31 6.418 4.852 9.682 2.584 5.418 5.102 10.907 8.118 16.077a93.5 93.5 0 0 0 7.89 11.813 59 59 0 0 0 11.223 10.998 18.2 18.2 0 0 1 5.148 5.01c.521.838 1.224 1.745 2.472 2.246m-75.802-65.644c-.225-1.178.024-2.29-.18-3.378l-1.904-9.614c-.59-2.835-1.021-5.737-1.86-8.503-1.747-5.736-3.13-11.542-4.648-17.323-1.475-5.578-2.337-11.314-4.49-16.689-.727-1.791-1.133-3.74-1.973-5.464-2.517-5.215-3.74-10.884-5.736-16.28-.795-2.154-1.43-4.376-2.2-6.554q-2.086-5.78-4.286-11.541c-.997-2.631-1.338-5.465-2.63-7.98-.43-.839-1.088-1.474-1.95-1.497-.884 0-.816 1.089-1.223 1.655q-.047.114-.047.272a52.1 52.1 0 0 0 .114 17.075q.84 5.442 2.744 10.702c1.836 4.966 2.492 10.27 4.535 15.214 1.587 3.832 2.925 7.777 4.263 11.7 1.338 3.945 3.356 7.618 4.24 11.745q.52 2.222 1.406 4.33c1.655 4.06 3.105 8.187 4.647 12.29 1.021 2.72 1.86 5.533 3.446 7.982 1.157 1.767 2.427 3.469 3.56 5.26 1.385 2.198 3.13 4.194 4.219 6.62Zm-18.82-281.117c.386-.249.227-.588.205-.883q-.317-4.694-.068-9.433c.182-3.56.294-7.12.114-10.68-.318-5.986-2.245-11.677-3.583-17.458-1.11-4.83-3.447-9.32-5.01-14.038-1.724-5.282-2.517-10.77-3.743-16.166a147 147 0 0 0-3.333-12.539c-1.677-5.282-3.718-10.43-4.852-15.872-.09-.408-.182-.907-.748-.815-.567.068-.318.589-.34.905 0 3.788-.09 7.575 0 11.338.159 5.261.181 10.522.747 15.737.454 4.149.68 8.342 1.565 12.47a133 133 0 0 0 2.494 9.91c1.452 4.941 3.062 9.84 4.355 14.806.658 2.539 1.021 5.17 1.722 7.685 1.111 3.969 2.223 7.915 2.995 11.95a24.9 24.9 0 0 0 7.46 13.06Zm65.03 85.098c2.814-2.087 5.714-4.059 8.278-6.485 2.676-2.54 5.146-5.305 7.664-8.026a24.92 24.92 0 0 0 6.892-16.894q.295-5.329-.794-10.454-1.087-5.1-1.54-10.27c-.227-2.7-.25-5.396-.885-8.048-.999-4.265-1.928-8.528-3.311-12.677-.68-2.063-1.246-4.216-3.015-6.054-.636 2.359-.546 4.626-.499 6.757.09 5.714.158 11.452.431 17.165.317 6.962.364 13.921-.204 20.883-.341 4.104-1.452 8.073-2.404 12.085-1.927 8.118-5.806 15.239-10.61 22.017m52.92 365.102c.906-.523 1.564-.817 2.152-1.246 3.514-2.586 7.415-4.535 11.338-6.373a139 139 0 0 0 11.655-6.304c3.945-2.335 7.618-5.17 11.268-7.959 3.401-2.584 6.439-5.532 7.981-9.705.952-2.561 1.226-5.215 1.587-8.14l-2.153 1.044c-2.72 1.384-5.397 2.856-8.187 4.104-5.916 2.653-11.766 5.374-16.914 9.41-3.514 2.744-6.802 5.712-9.68 9.115a56.8 56.8 0 0 0-7.78 12.584c-.475 1.02-.792 2.11-1.29 3.447Zm-19.68-285.879c-1.656.77-3.153 1.316-4.49 2.268-4.399 3.174-8.323 6.871-12.427 10.385a14.75 14.75 0 0 0-5.033 9.274c-.658 4.625-.09 9.182.997 13.694a97.5 97.5 0 0 0 5.33 17.278q1.02 2.245 2.13 4.445c.092-.703-.112-1.246-.225-1.837-.772-3.72-1.293-7.46-1.928-11.202q-.817-4.535.07-8.933c.77-3.673 2.492-7.12 4.373-10.385 1.452-2.517 3.174-4.874 4.56-7.438a77 77 0 0 0 5.214-11.427c.68-1.928 1.61-3.832 1.406-6.167Zm-74.214-.817a20.4 20.4 0 0 0-7.482-8.91 97.5 97.5 0 0 0-16.326-8.91c-1.293-.501-2.494-1.226-3.81-1.657q-9.024-2.901-18.094-5.712c-3.605-1.113-7.323-1.544-11.043-1.998-.316-.045-.702-.022-.882.274-.229.407.09.68.361.952a38.6 38.6 0 0 0 9.773 7.21c6.62 3.265 13.694 5.557 20.43 8.593 3.651 1.656 7.323 3.333 11.267 4.128 3.538.725 6.737 2.312 10.001 3.785 1.814.84 3.74 1.452 5.759 2.223Zm85.595 192.007c3.696-.09 7.234-.112 10.772.25 3.219.318 6.438.839 9.68.432q5.103-.614 10.249-.704c4.445-.09 8.912-.09 13.085-1.974q4.466-1.995 8.071-5.305c.77-.702.589-1.133-.204-1.52a20.4 20.4 0 0 0-5.646-1.813c-3.97-.613-7.869.069-11.768.476q-5.51.588-10.974 1.564-3.605.636-7.076 1.792a166 166 0 0 0-10.702 4.081c-1.835.77-3.718 1.497-5.487 2.721m-100.47-272.728c.09.568.09.93.225 1.27a38.6 38.6 0 0 0 4.605 8.64c2.267 2.97 4.557 5.94 6.418 9.206 2.516 4.398 4.898 8.888 7.936 12.97 1.632 2.198 3.015 4.624 3.922 7.3q1.315 3.992 2.13 8.118c1 4.74 1.792 9.523 1.929 14.397.045 1.498.43 2.97.657 4.445l.499-.045c0-3.266-.137-6.553.022-9.796q.454-9-2.516-17.435a118 118 0 0 0-5.896-14.128c-1.973-3.967-4.4-7.662-6.53-11.541-1.814-3.31-4.445-6.098-6.962-8.91a15.9 15.9 0 0 0-6.394-4.466Zm110.584 373.856c2.72.907 4.851 2.88 7.46 3.922 1.134.453 2.29.884 3.583 1.021 2.99.294 5.938.84 8.931 1.201 2.427.295 4.808.182 6.917-1.29.862-.591 1.156-1.112.069-1.84-1.385-.906-2.631-2.04-4.037-2.9a22.7 22.7 0 0 0-7.505-3.084c-2.2-.454-4.332-.045-6.463.316-3.037.523-6.075 1.112-8.933 2.654Zm-21.768-2.313c-5.035-6.62-12.176-9.386-19.93-11.065a45.35 45.35 0 0 0 19.93 11.065m-83.692-425.28c.157-1.768-2.995-7.733-4.286-8.482 1.11 2.95 3.038 5.353 4.284 8.481"/><path d="M1124.068 999.925q-.227 0-.409-.047c-2.177-1.087-3.877.273-5.69 1.09-3.335 1.45-6.644 2.403-10.455 1.676a45.4 45.4 0 0 0-12.99.092c-3.902.43-7.755 1.405-11.701 1.02a36.4 36.4 0 0 1-8.367-1.7c-2.562-.885-5.011-2.086-7.595-2.926-.885-.294-1.724-.703-1.77-1.7-.044-1.11.704-1.723 1.723-2.064a50 50 0 0 1 10.273-2.313q8.39-1.021 16.824-1.904c4.126-.453 8.253-.974 12.379-1.225 3.56-.225 7.12.069 10.5 1.338 1.744.657 3.513 1.407 4.67 3.084q.839 1.293 2.403 1.814c.544.16 1.09.566 1.45 1.021.41.499.93 1.087.546 1.882-.363.747-1.044.837-1.769.837Zm-53.988-2.406c.566.772 1.383.818 2.04 1.113 4.242 1.859 8.638 2.88 13.332 2.606 3.765-.204 7.393-1.133 11.135-1.36 3.695-.225 7.368-.521 11.063.07a11.34 11.34 0 0 0 6.418-.524c2.064-.86 3.947-2.04 5.963-2.947.93-.431.205-.725-.159-1.042-2.607-2.382-5.895-2.79-9.16-3.017-5.85-.407-11.586.75-17.346 1.497-6.28.793-12.606 1.36-18.843 2.472-1.473.272-2.97.543-4.443 1.133"/></g><g stroke="#fafafa" stroke-width="4.933" paint-order="stroke"><path d="M538.337 614.263c.613-.554 1.085-.928 1.52-1.362 2.682-2.565 5.604-4.853 8.446-7.221l4.734-3.888c2.032-1.696 3.986-3.53 6.314-4.933 1.283-.77 2.427-1.895 3.79-2.645.394-.216.77-.533 1.223-.472.768.118.947-.336 1.184-.949a33.6 33.6 0 0 1 4.34-7.655c1.105-1.5 2.289-3.038 3.691-4.4 1.341-1.322 2.624-2.802 3.984-4.104 1.64-1.558 3.573-2.821 5.487-4.085a34.7 34.7 0 0 1 16.357-5.604c4.992-.414 10.004-.433 15.017-.553 3.116-.077 6.155-.789 9.253-.965 4.085-.258 8.189-.752 12.156-1.757 2.624-.672 5.328-1.027 7.912-1.915l.77-.256c3.433-.631 6.688-1.893 10.022-2.88q4.697-1.362 9.354-2.922c2.82-.986 5.684-1.933 8.446-3.037 1.264-.514 2.603-.909 3.848-1.54a2.56 2.56 0 0 1 2.939.375c.77.613.218 1.46.059 2.25-.494 2.742-2.15 4.874-3.59 7.123a53.7 53.7 0 0 1-6.434 7.991c-1.815 1.855-3.946 3.434-6.096 4.973-1.639 1.165-3.474 2.013-4.954 3.434-.61.571-1.52.907-2.309 1.341a125 125 0 0 1-12.332 6.096c-3.275 1.382-6.688 2.27-9.984 3.533-2.624 1.006-5.466 1.46-8.188 2.27-4.952 1.48-10.122 1.695-15.114 2.762-3.79.789-7.599 1.184-11.386 1.914-1.558.294-3.157.315-4.717.374-4.794.178-9.391 1.5-14.089 2.231-2.23.355-4.478.472-6.728.71q-4.064.432-7.951 1.717c-2.664.848-5.051 2.367-7.616 3.432a31.5 31.5 0 0 0-8.86 5.328q-2.585 2.269-5.21 4.479a60.6 60.6 0 0 0-6.808 6.847c-2.072 2.35-4.459 4.362-6.57 6.61a45 45 0 0 1-4.005 3.73c-1.5 1.243-2.744 2.822-4.125 4.182-1.46 1.421-2.683 3.059-4.262 4.402-1.164.987-2.17 2.267-3.157 3.472-1.282 1.558-2.802 2.842-4.045 4.44-1.834 2.388-3.789 4.696-5.682 7.024q-2.763 3.434-5.466 6.966c-.987 1.302-1.835 2.8-2.88 3.985-1.283 1.46-1.738 3.474-3.336 4.639-.512.373-.554 1.003-.869 1.478q-1.677 2.625-3.709 4.972c-1.045 1.205-2.19 2.31-3.237 3.531a93 93 0 0 0-9.075 13.044c-1.46 2.666-3.039 5.269-4.519 7.914-1.243 2.208-2.151 4.597-3.493 6.747-.592.986-.71 2.132-1.163 3.157q-2.428 5.525-4.756 11.11c-.494 1.203-.73 2.505-1.184 3.729-1.125 3.177-2.288 6.335-3.059 9.61-.078.354-.394.67-.67 1.104.947.02 1.065-.71 1.302-1.184q1.677-3.453 3.275-6.945c.08-.159.08-.375.178-.493 1.934-2.132 2.683-4.973 4.44-7.242 1.54-1.994 3-4.124 4.517-6.137 1.126-1.5 2.626-2.801 3.888-4.262 1.994-2.288 4.303-4.261 6.413-6.413 1.362-1.38 2.98-2.426 4.48-3.591a85 85 0 0 1 8.918-6.197q2.585-1.478 5.19-2.92a163 163 0 0 1 11.465-5.997 126 126 0 0 0 6.511-3.394c2.25-1.243 4.598-2.35 6.867-3.514 2.624-1.34 5.21-2.782 7.893-4.024q5.82-2.683 11.484-5.603c3.67-1.895 7.498-3.552 11.069-5.626 2.032-1.182 4.362-1.774 6.295-3.018 2.19-1.4 4.696-1.973 6.965-3.136 2.446-1.243 5.248-1.579 7.893-2.31q4.933-1.34 9.807-2.842c.789-.235 1.32-1.045 2.267-1.104.613-.04 1.106.059 1.362.632.257.552.06 1.045-.373 1.48-1.994 1.914-3.632 4.144-5.487 6.176-2.486 2.722-4.499 5.84-7.34 8.308-1.046.907-1.972 2.169-2.841 3.352-.947 1.304-2.131 2.408-3.176 3.592-1.56 1.776-3.12 3.572-4.778 5.229-1.438 1.44-3.096 2.704-4.635 4.045-1.914 1.658-4.066 2.94-6.196 4.203-2.328 1.402-4.598 2.9-6.984 4.223-2.408 1.322-4.914 2.527-7.263 3.986q-3.552 2.21-6.944 4.597c-2.17 1.52-4.52 2.802-6.65 4.459-2.053 1.6-4.598 2.565-6.888 3.848-2.25 1.263-4.834 1.895-6.826 3.612-.77.65-1.816.67-2.704 1.184l-6.432 3.63c-2.033 1.125-4.242 1.874-6.177 3.177-.848.572-1.933.79-2.821 1.264-2.803 1.499-5.702 2.742-8.544 4.123-1.54.75-3.058 1.656-4.736 2.21-1.301.433-2.466 1.44-3.807 1.934a80 80 0 0 0-7.557 3.295 43.3 43.3 0 0 0-6.474 3.71q-2.17 1.656-4.44 3.215c-.907.611-1.578 1.323-1.755 2.448-.04.235.04.71-.296.63-.946-.236-1.125.493-1.303 1.007-.808 2.25-2.072 4.282-3.195 6.352a107 107 0 0 0-4.224 8.96c-.808 1.895-1.282 3.927-2.013 5.88-1.301 3.473-1.815 7.163-3 10.635-.847 2.507-1.28 5.19-2.386 7.557-1.54 3.296-2.151 6.829-3.296 10.221-1.085 3.157-1.38 6.612-1.815 9.965-.395 2.98.218 5.841.613 8.723.315 2.19.57 4.398 1.026 6.55.414 1.914.966 3.789 1.222 5.741q.986 7.164 1.5 14.385c.336 4.816.966 9.61 1.48 14.424q.71 6.67.1 13.38-.198 2.426-.158 4.872c.058 3.946-.198 7.892-.987 11.721-.869 4.184-1.205 8.504-2.605 12.549-1.263 3.652-2.191 7.4-3.216 11.11a35.5 35.5 0 0 0-.948 11.978c.316 4.893.434 9.805.868 14.699.158 1.737-.216 3.473.1 5.11.67 3.553.236 7.123.67 10.656.217 1.835-.04 3.69.177 5.544q.158 1.421-1.301 1.757c-2.842.571-3.493-.099-3.531-2.31q-.2-8.74-.495-17.441c-.099-2.882-.06-5.802-.572-8.623-.908-5.053-.77-10.122-.81-15.194 0-3.098-.157-6.196-.138-9.314 0-2.13-.65-4.124-2.88-5.407a66 66 0 0 1-7.517-5.267c-1.264-.987-2.35-2.231-3.395-3.474-.493-.61-1.106-1.026-1.658-1.539-1.539-1.498-3.493-2.405-5.17-3.709-.986-.77-2.129-1.341-3.195-2.013-2.645-1.677-5.605-2.426-8.545-3.375-2.15-.689-4.499-.926-6.472-2.112-1.184-.71-2.21-1.635-3.393-2.326-1.441-.848-2.644-1.994-4.084-2.861q-2.626-1.6-4.757-4.026-1.381-1.598-2.96-2.979c-1.263-1.066-2.25-2.368-3.493-3.453-1.616-1.402-3.373-2.466-5.149-3.572-2.92-1.835-6.314-2.467-9.372-3.966-1.835-.888-3.987-1.144-5.88-1.933-4.203-1.738-8.407-3.514-12.727-4.973-1.68-.571-3.336-1.264-5.112-1.579a3.8 3.8 0 0 1-2.17-1.242c-.67-.752-.83-1.52 0-2.33a9.87 9.87 0 0 1 4.282-2.643c2.584-.71 4.914-2.112 7.597-2.624 4.322-.848 8.642-1.245 13.023-.79 3.808.395 7.656.532 11.424 1.164 2.19.355 4.48.138 6.63 1.026.572.237 1.52.178 2.31.217 3.254.159 6.55.514 9.61 1.52 3.551 1.183 7.044 2.703 9.903 5.308q3.552 3.314 7.085 6.669c.336-.315.256-.632.08-.888-1.422-2.349-1.875-5.05-2.507-7.637-.71-2.88-1.796-5.642-2.544-8.524-1.423-5.485-2.943-10.912-3.533-16.575-.237-2.23-.928-4.4-1.026-6.63-.139-2.92-.454-5.86-.257-8.799.217-3.415.118-6.868.572-10.26.671-4.914.927-9.847 1.322-14.761.493-5.939.65-11.898.888-17.858.158-4.379.493-8.74.197-13.102l-.296-4.46c-.138-1.874 1.144-2.623 2.427-3.156.928-.395 1.954.375 2.723 1.007a13.85 13.85 0 0 1 3.808 4.776c.375.808 1.263 1.242 1.717 2.05 1.263 2.211 2.96 4.144 4.303 6.275 1.263 1.994 3.018 3.612 4.102 5.764.554 1.123 1.599 1.973 2.31 3.077 2.032 3.196 4.103 6.373 5.544 9.904.06.16.099.357.433.376-.137-2.368-.216-4.736-.414-7.084a145 145 0 0 1-.413-11.76c0-3.335-.118-6.669-.118-10.004q0-6.787-.79-13.477a197 197 0 0 1-1.026-10.714c-.178-2.821-.375-5.663-.375-8.506 0-1.992-.277-4.024-.416-6.058q-.432-5.92-.747-11.839c-.04-.827-.554-1.44-.613-2.288-.512-6.688-.83-13.397-.75-20.106 0-1.244-.512-1.696-1.54-1.954a35.5 35.5 0 0 1-8.208-2.9 15.8 15.8 0 0 0-4.774-1.697c-1.322-.237-2.546-.692-3.887-.12-.65.297-1.362.14-2.093-.117-2.09-.69-4.202-.256-6.274.237a61 61 0 0 0-10.97 3.71c-2.683 1.223-5.525 1.953-8.15 3.274-1.756.888-3.748 1.283-5.524 2.132a113 113 0 0 1-8.88 3.63c-2.132.81-4.479 1.066-6.65 1.816-3.473 1.184-7.063 1.954-10.497 3.256-2.17.829-4.518 1.223-6.848 1.498a67.5 67.5 0 0 1-12.509.179c-4.361-.315-8.702-.158-13.062-.355-3.808-.178-7.637-.277-11.367-1.125-3.098-.71-6.254-1.322-9.293-2.27-5.703-1.794-11.623-2.13-17.444-3.215-.827-.158-1.381-.693-2.129-.947-.535-.178-.396-1.026 0-1.54.69-.849 1.636-1.4 2.604-1.875q4.557-2.25 9.156-4.419 4.794-2.29 9.648-4.44c2.21-1.007 4.597-1.618 6.73-2.703 2.82-1.44 6.018-1.894 8.76-3.552a11.8 11.8 0 0 1 3.927-1.362c2.584-.512 4.813-1.934 7.321-2.683 3.393-1.026 6.55-2.802 10.043-3.592 1.125-.256 2.013-1.064 3.157-1.402 1.677-.491 3.453-.728 5.09-1.4 4.184-1.736 8.642-2.011 13.063-2.25 2.584-.137 5.21.06 7.813.396.571.078 1.165 0 1.68 0-3.93-1.815-8.25-2.9-11.882-5.407-2.426-1.656-4.853-3.295-7.141-5.189a135 135 0 0 1-7.085-6.314 38 38 0 0 1-3.53-3.789 29.4 29.4 0 0 0-3.69-3.808c-1.422-1.203-2.35-2.762-3.533-4.125-1.067-1.222-2.25-2.386-3.118-3.768-1.125-1.776-2.683-3.197-4.045-4.754-2.092-2.389-3.906-5.053-6.413-7.085-.592-.474-.77-1.282-1.303-1.874a43.3 43.3 0 0 1-7.656-10.813c-.946-2.053-2.347-3.888-2.86-6.117-.217-.947-.494-1.933.295-2.683.73-.692 1.619-.277 2.527-.199 1.913.16 3.649.928 5.524 1.184 1.5.197 2.86.928 4.322 1.362 1.775.533 3.709.632 5.327 1.461 2.486 1.302 5.288 1.755 7.696 3.315 1.066.69 2.466 1.045 3.749 1.48q3.986 1.322 7.676 3.216c2.427 1.242 5.168 1.815 7.339 3.551.573.454 1.42.513 2.132.83 3.512 1.618 6.906 3.471 10.437 4.991 3.434 1.5 6.75 3.256 10.282 4.597a37.6 37.6 0 0 1 6.352 2.861c1.658 1.008 3.631 1.363 5.111 2.488 1.934 1.48 4.302 2.05 6.216 3.551 1.597 1.243 3.53 2.13 5.366 3.059 4.5 2.267 8.98 4.557 13.3 7.142 2.25 1.343 4.263 3.098 6.473 4.559 1.499.965 2.821 2.15 4.182 3.254a37.6 37.6 0 0 1 8.012 8.406c.336-.789.374-1.44.355-2.071-.118-6.808-.178-13.634-.433-20.442-.239-6.274-.138-12.531-.138-18.804 0-2.112-.139-4.242-.672-6.394-.75-3.04-1.184-6.196-2.112-9.215-1.795-5.762-1.38-11.879-2.781-17.68-.848-3.513-1.421-7.142-2.605-10.537a11.84 11.84 0 0 0-3.808-5.17c-2.368-1.795-3.808-4.517-6.177-6.314-1.46-1.104-2.763-2.427-4.539-3.157-1.32-.552-2.25-1.736-3.216-2.763-.69-.749-1.223-1.518-2.21-2.032a11.8 11.8 0 0 1-3.078-2.565c-1.557-1.755-3.472-2.979-5.386-4.282-2.527-1.715-4.677-3.984-7.202-5.682-2.13-1.46-3.829-3.453-6.138-4.696-.472-.256-.75-.888-1.203-1.243a45 45 0 0 0-6.295-4.42c-.552-.316-.987-.75-1.459-1.086-1.835-1.263-3.394-2.88-4.973-4.419-1.301-1.263-2.842-2.269-4.085-3.612-1.163-1.264-2.663-2.23-4.064-3.254-1.637-1.205-2.9-2.783-4.4-4.125-1.56-1.381-2.644-3.157-4.223-4.538-1.224-1.066-2.19-2.448-3.275-3.69-1.322-1.52-2.882-2.744-4.204-4.262a41.5 41.5 0 0 0-4.971-4.933c-1.442-1.165-2.506-2.565-3.573-3.927-1.28-1.618-2.9-2.88-4.103-4.557-.73-1.027-2.131-1.382-2.862-2.586-.553-.907-.671-1.697-.098-2.507.632-.888 1.578-.67 2.328-.235q2.191 1.302 4.263 2.8 1.736 1.245 3.512 2.39 2.605 1.656 5.288 3.156c1.775 1.027 3.69 1.816 5.525 2.723 2.644 1.302 5.327 2.466 7.932 3.867 1.816.986 3.375 2.309 5.13 3.375 3.099 1.854 5.939 4.104 8.92 6.117 2.762 1.854 5.623 3.61 8.386 5.466 1.814 1.222 3.49 2.742 5.11 4.301q2.665 2.584 5.348 5.11a158 158 0 0 0 9.293 8.15q2.032 1.579 3.828 3.491c1.222 1.304 2.25 2.842 3.689 3.947.533.394.573.986.908 1.46 1.184 1.678 2.507 3.237 3.75 4.854 1.163 1.52 2.506 2.96 3.847 4.38 1.776 1.896 3.552 3.83 4.952 6.099 2.427 3.965 3.71 8.365 5.368 12.647 1.223 3.157 1.677 6.532 2.86 9.629a59 59 0 0 1 2.744 9.985c.078.355.038.987.552.947.572-.04.295-.65.315-.987q.435-10.556 1.974-21.014c.848-5.88 1.007-11.82 2.111-17.66q1.085-5.762 2.389-11.445c.512-2.288.453-4.676 1.104-6.925 1.203-4.085 1.46-8.386 3.216-12.353.888-2.032 1.264-4.32 1.677-6.53.494-2.507 1.461-4.894 1.934-7.4.692-3.631 2.586-6.847 3.434-10.437.394-1.738 1.538-3.199 1.992-4.954.692-2.586 1.757-5.111 2.151-7.735.611-4.242.433-8.544.139-12.845-.099-1.48.038-3.02-1.224-4.105-2.882-2.467-5.802-4.715-9.964-4.46-3.632.217-7.301.1-10.933.316-4.754.296-9.51.317-14.167-.433-5.604-.928-11.207-.455-16.812-.751-3.453-.177-6.906-.374-10.24-1.44a14 14 0 0 1-2.19-.987c-1.46-.789-3.137-.986-4.776-1.243-2.88-.432-5.485-1.756-8.248-2.565-2.584-.75-5.031-1.855-7.597-2.624-1.933-.57-3.63-1.874-5.386-2.92-2.763-1.658-5.781-2.724-8.8-3.808-1.895-.692-3.927-1.343-5.447-2.585-2.742-2.25-5.762-4.144-8.405-6.531-.968-.869-2.447-1.125-2.9-2.645-.316-1.104-.119-1.658.986-1.835l9.294-1.54q5.347-.886 10.773-.65 6.096.295 12.175.513c3.078.099 6.176.315 9.115 1.065 2.645.671 5.309 1.263 7.933 1.973 1.796.493 3.67.493 5.486.81 5.11.907 10.3.987 15.45 1.46q4.144.394 8.365.454c3.77.06 7.223 1.382 10.656 2.683 3.236 1.224 6.629 1.934 9.807 3.256 2.09.869 4.202 1.914 5.938 3.472.258.218.534.296.81.435a13.85 13.85 0 0 1 5.9 5.367c.67 1.224 1.716 2.19 2.29 3.472 1.103 2.467 2.544 4.756 3.431 7.34.79 2.27 1.48 4.619 2.666 6.73 1.28 2.308 1.182 4.736 1.243 7.2v1.501c.65-.157.69-.671.848-1.045 1.224-2.92 2.821-5.663 4.362-8.447 1.34-2.426 2.88-4.715 4.24-7.141 1.697-3.04 3.592-5.96 5.427-8.92 1.815-2.92 3.749-5.762 5.466-8.74 1.499-2.624 3.472-4.914 5.071-7.44l3.472-5.407c1.915-2.92 3.355-6.075 4.933-9.156 1.165-2.249 2.783-4.32 3.277-6.865.57-2.98 2.368-5.642 2.032-8.86-.198-1.914-.12-3.808-1.304-5.525-.61-.888-.808-2.09-1.163-3.157-.927-2.683-2.447-5.111-3.847-7.538-.849-1.46-1.421-3.098-2.408-4.44q-1.381-1.933-2.723-3.925c-1.184-1.757-2.032-3.652-3.058-5.487-1.68-2.979-2.487-6.235-3.315-9.45-1.322-5.091-1.834-10.301-.474-15.53.77-2.94 1.54-5.9 2.842-8.642a118 118 0 0 1 4.36-8.288c1.44-2.506 2.94-5.052 3.472-7.991.139-.83.455-1.48 1.461-1.44 1.027.038 1.006.867 1.184 1.558 1.125 4.618 2.053 9.313 3.453 13.833.869 2.8 1.598 5.661 2.704 8.405a59.2 59.2 0 0 1 4.3 15.628c.356 3.254 1.5 6.373 2.132 9.57.631 3.216.75 6.511.592 9.807-.139 2.96.119 5.938 0 8.917-.139 3.474-.494 6.927-.691 10.4-.04.847-.493 1.54-.79 2.25-1.026 2.544-.216 5.445-1.618 7.892-1.242 2.17-2.328 4.38-3.749 6.453-1.616 2.347-3.551 4.498-4.97 7.437 3.194-2.405 6.036-4.656 8.996-6.746 3.315-2.35 6.61-4.717 10.064-6.907a94 94 0 0 0 8.958-6.314c1.617-1.303 3.216-2.665 4.894-3.927 1.005-.77 1.755-1.835 2.781-2.683a94 94 0 0 1 8.407-6.413q3.965-2.586 8.09-4.954c2.525-1.44 5.19-2.565 7.832-3.67 2.408-1.006 5.13-1.44 7.755-1.775 2.172-.277 4.342-.692 6.513-.869l8.602-.61c4.815-.337 9.65-.337 14.444-.91 2.051-.256 4.144-.334 6.197-.591 2.84-.355 5.563-1.264 8.424-1.579 2.093-.235 4.242-.433 6.236-1.045 2.664-.809 5.427-1.184 8.11-1.854q2.21-.573 4.458-1.085c.692-.16 1.442-.08 1.717.71.336.986.059 2.012-.768 2.544-1.64 1.047-2.882 2.546-4.402 3.73-2.525 1.954-5.19 3.73-7.734 5.663-1.52 1.165-3.177 1.933-4.834 2.802-4.223 2.268-8.761 3.75-13.161 5.565-3.315 1.36-6.808 1.973-10.162 3.116-3.493 1.204-7.064 1.756-10.695 1.895q-6.176.237-12.373.277c-3.413 0-6.906.04-10.26.67-5.328 1.007-10.813.73-16.042 2.17-3.552.987-7.103 2.072-10.18 4.282-1.718 1.243-3.632 2.23-5.566 3.157-1.341.651-2.447 1.776-3.669 2.683a59 59 0 0 1-9.374 5.823 23.7 23.7 0 0 0-6.315 4.44q-2.208 2.111-4.616 4.064c-.474.394-.65.986-1.066 1.38-2.605 2.407-4.362 5.488-6.669 8.11-1.283 1.46-2.427 3.058-3.73 4.5q-2.525 2.782-4.715 5.958-1.578 2.33-3.216 4.578c-1.618 2.191-2.922 4.639-4.282 7.005-1.165 2.032-2.191 4.183-3.71 6.018-.591.71-.81 1.6-1.244 2.389a125 125 0 0 0-4.005 8.17c-1.381 3.136-2.742 6.293-4.362 9.33-1.973 3.711-3.867 7.48-5.405 11.386a69 69 0 0 0-3.65 12.095c-.395 2.034-1.302 4.007-1.915 6.019-1.184 3.908-2.723 7.695-3.552 11.721-.294 1.48-.808 2.92-1.104 4.42-.099.532-.178 1.046-.04 1.697 1.402-1.381 1.895-3.197 2.861-4.736 2.152-3.434 4.165-6.946 6.373-10.34 2.21-3.392 5.032-6.274 7.578-9.352 2.09-2.527 4.362-4.933 6.235-7.598a49.3 49.3 0 0 0 4.578-8.01c1.007-2.21 1.757-4.518 2.743-6.71 1.203-2.624 1.696-5.464 2.979-8.01.987-1.954 1.381-4.261 2.704-5.939 1.38-1.737 2.388-3.71 3.808-5.447q2.665-3.236 5.287-6.511c1.363-1.677 2.96-3.098 4.402-4.637 1.381-1.48 2.9-2.96 4.637-4.184 2.368-1.656 4.656-3.432 6.984-5.13q3-2.209 6.098-4.32c3.453-2.31 6.866-4.677 10.399-6.867 3.058-1.895 6.075-3.847 9.194-5.684a137 137 0 0 0 11.722-7.498c.71-.531 1.538-.827 2.15-1.558.513-.592 1.44-.927 2.071-.335s.947 1.402.376 2.426c-2.013 3.652-4.085 7.242-5.92 10.991a83 83 0 0 1-5.327 9.472c-1.954 2.978-3.71 6.077-5.723 9.017-1.796 2.605-3.473 5.288-5.287 7.872a53.7 53.7 0 0 1-5.546 7.026c-2.032 2.032-3.71 4.4-5.722 6.472-1.579 1.618-3.393 3-5.13 4.48-1.264 1.064-2.683 1.933-3.987 2.92-1.341 1.045-2.781 1.972-4.064 3.077a43.3 43.3 0 0 1-6.669 4.44c-1.362.77-2.487 1.855-3.906 2.564q-3.592 1.776-7.203 3.474c-1.994.966-3.868 2.19-5.743 3.375-1.48.926-2.939 1.913-4.775 1.913q-.531.02-.75.493c-1.419 2.92-3.728 5.17-5.642 7.715-1.106 1.48-2.448 2.762-3.69 4.026-1.363 1.381-2.645 2.9-3.947 4.322-1.677 1.854-3.413 3.808-4.677 6.058-1.144 2.011-2.445 3.946-3.69 5.899-.355.57-.926 1.026-1.064 1.696-.355 1.658-1.697 2.704-2.586 3.986a25.6 25.6 0 0 0-4.045 9.807c-1.065 5.504-2.072 11.01-2.723 16.594-.888 7.46-1.28 14.958-2.21 22.397-.334 2.683-.294 5.406-.67 8.07-.237 1.677.078 3.314 0 4.973-.277 5.227.512 10.418.157 15.647-.216 3.138.1 6.295-.138 9.412-.138 1.776.04 3.57-.374 5.348-.218.907.374 1.953.374 3.017 0 3.79.157 7.578.256 11.367 0 .118.08.237.197.552l.987-2.013c2.072-3.867 2.704-8.149 3.631-12.351q.849-3.73 1.955-7.4a67 67 0 0 0 2.781-13.279c.256-3.612.315-7.202.415-10.815.097-3.511-.1-7.044.257-10.516a17.8 17.8 0 0 1 1.973-6.53c1.795-3.336 3.491-6.75 5.662-9.848a41.5 41.5 0 0 1 6.276-7.557c1.656-1.46 3.136-3.138 4.834-4.557 2.209-1.835 4.203-3.967 6.768-5.367 1.085-.592 1.776-1.697 2.96-2.27 1.874-.908 3.57-2.17 5.306-3.276 2.368-1.518 4.895-2.8 7.42-3.886 4.203-1.817 8.426-3.592 12.747-5.13 2.665-.949 5.348-1.776 8.012-2.725 2.544-.888 5.13-1.578 7.695-2.406 3.985-1.282 8.11-2.013 12.116-3.196 3.947-1.184 8.01-1.619 11.957-2.586 4.518-1.105 9.214-1.4 13.653-2.683 3.453-1.006 7.005-1.5 10.479-2.31 4.637-1.084 9.412-1.695 14.09-2.604 1.893-.374 3.727-.987 5.602-1.48.75-.197 1.618-.395 2.17.277.534.632.1 1.42-.157 2.072a31 31 0 0 1-2.427 4.794 68 68 0 0 1-4.361 6.335c-1.697 2.268-3.926 4.005-6.117 5.76-2.605 2.112-5.485 3.791-8.326 5.546q-3.356 2.112-6.828 3.986c-2.645 1.4-5.248 2.9-7.912 4.28-3.533 1.836-7.202 3.296-10.814 4.955-3.808 1.755-7.893 2.703-11.68 4.498-1.047.493-2.25.65-3.375.987a125 125 0 0 1-11.997 3.04 34.3 34.3 0 0 0-8.78 2.997c-2.033 1.026-3.947 2.408-5.88 3.652-2.033 1.32-4.006 2.86-6.315 3.768-1.42.552-2.388 1.816-3.887 2.347-3.197 1.125-6.256 2.645-9.434 3.869q-3.845 1.44-7.792 2.584c-3.178.967-6.314 2.053-9.727 2.309a34 34 0 0 0-8.802 1.855c-1.44.513-1.301 1.993-1.301 3.137 0 4.46.294 8.938-.514 13.319-.651 3.552-.809 7.143-1.558 10.655-.454 2.112-.494 4.322-1.106 6.373q-.907 2.94-1.5 5.94c-.157.79-.255 1.619-.553 2.368-1.203 3.117-2.091 6.373-3.649 9.373q-.79 1.578-1.204 3.295c-.611 2.289-1.638 4.44-2.427 6.649a29.6 29.6 0 0 0-1.381 10.774c.058 3.237.218 6.491.157 9.728-.038 1.776.81 3.216 1.362 4.755 1.184 3.236 1.934 6.65 3.336 9.748 1.203 2.664 1.814 5.504 3.037 8.13.494 1.064.632 2.347.73 3.551.416 4.184.395 8.366.316 12.57-.059 3.334-1.539 6.333-2.643 9.392-1.52 4.183-3.216 8.308-3.237 12.844q.02 4.322.336 8.644.512 7.459 1.184 14.917c.138 1.558.432 3.157.474 4.656.059 2.349.197 4.698.235 7.065.12 7.261.258 14.503.653 21.744q.433 8.84.768 17.7.1 2.487.08 4.991c0 1.658.552 3.099 1.44 4.5 1.165 1.854 1.402 4.144 2.584 6.019.139.216.218.531.653.493q.334-3.276 1.341-6.413c1.065-3.197 1.558-6.572 2.763-9.69 1.203-3.117 1.656-6.431 2.762-9.53 1.46-4.124 2.31-8.425 3.867-12.53q1.914-5.21 4.026-10.28c1.558-3.689 2.723-7.497 3.986-11.267q2.268-6.61 4.4-13.258c.867-2.744 1.835-5.565 3.393-8.111.927-1.52 1.322-3.335 2.013-5.013 1.223-3.037 1.895-6.293 3.058-9.332.751-1.934 1.362-3.729.554-5.664-1.362-3.254-1.973-6.669-2.565-10.122-.317-1.835-.909-3.63-1.56-5.366-1.045-2.724-.888-5.604-1.381-8.387-1.125-6.214-.415-12.51-1.125-18.725a81 81 0 0 0-1.046-6.532c-.335-1.716-.335-3.414-.256-5.13q.416-9.53 1.065-19.06c.197-2.822.12-5.704.909-8.427q.986-3.432 1.656-6.906c.77-4.024 2.072-7.893 3.197-11.818.571-1.973 1.42-3.869 2.21-5.781 1.027-2.429 1.992-4.895 3.197-7.242 1.28-2.488 2.288-5.112 3.907-7.46.946-1.382 1.756-2.88 2.842-4.203q.867-1.104 2.072-1.696c2.267-1.125 3.906-.277 4.24 2.23.435 3.196.987 6.412 1.125 9.628.16 3.552-.138 7.104-.176 10.655-.06 4.322.059 8.642-.099 12.964q-.237 6.098-.197 12.175c.019 3.75.216 7.518.848 11.147.571 3.317.474 6.572.216 9.788q-.355 4.144-1.125 8.248c-.827 4.599-2.603 8.88-4.261 13.182-1.402 3.65-2.112 7.4-3.019 11.13-.848 3.472-.808 7.003-1.48 10.477 1.144-3.237 2.545-6.375 3.907-9.493 1.045-2.388 1.558-5.01 2.86-7.183 1.441-2.406 1.817-5.128 3.118-7.557.968-1.795 1.442-3.906 1.835-5.92.277-1.36 1.047-2.445 1.482-3.688.472-1.343.71-2.762 1.263-4.105.886-2.23 1.499-4.558 2.326-6.808 1.008-2.781 1.994-5.563 3.178-8.266 1.854-4.243 3.71-8.485 5.84-12.57q1.856-3.53 3.928-6.986a71 71 0 0 1 10.695-14.266l6.629-6.61c1.597-1.597 3.493-2.92 5.269-4.32q3.63-2.804 7.3-5.586l6.353-4.813c1.52-1.165 3.158-2.21 4.599-3.474q2.21-1.952 4.517-3.749c2.27-1.755 4.578-3.552 7.242-4.794 1.125-.534 2.152-1.243 3.216-1.894q.79-.454 1.679-.434c.827 0 1.755.08 2.129.868.336.691-.078 1.44-.473 2.13-.71 1.244-1.144 2.665-1.893 3.868-1.52 2.388-2.21 5.15-3.573 7.616-.867 1.56-1.242 3.375-2.09 4.953-1.243 2.27-1.835 4.835-3.414 6.946-.493.67-.71 1.558-1.085 2.328-1.402 2.96-2.586 6.019-3.946 8.978a64 64 0 0 1-3.277 6.552c-1.46 2.406-3 4.754-4.301 7.26-.69 1.323-2.032 2.23-2.486 4.027ZM424.74 663.887a8 8 0 0 0-.729-2.603c-.848-1.619-1.578-3.296-2.368-4.933-1.914-4.026-3.316-8.288-6.097-11.898-1.402-1.818-2.448-3.967-4.064-5.605q-1.955-1.973-4.106-3.768c-1.518-1.263-3.176-2.368-4.656-3.69-2.072-1.855-4.557-3.157-6.789-4.794-1.874-1.363-3.984-2.29-5.938-3.552-1.677-1.085-3.632-1.835-5.466-2.744-2.507-1.242-4.776-2.821-7.163-4.242-2.13-1.264-4.44-2.17-6.49-3.592-1.896-1.301-4.224-1.794-6.296-2.92a43 43 0 0 0-6.236-2.743c-3.018-1.085-5.722-2.742-8.7-3.848-.672-.256-1.42-.413-1.993-.827-2.349-1.757-5.191-2.487-7.696-3.927-1.263-.73-2.86-1.046-3.986-1.816-2.032-1.381-4.38-1.914-6.49-3.019a78 78 0 0 0-7.618-3.434c-.75-.294-1.579-.493-2.27-.888-3.236-1.893-6.926-2.682-10.34-4.162-2.367-1.006-5.031-1.342-7.575-1.974-.296-.08-.693-.237-.888.06-.238.375.098.692.334.927 1.48 1.499 2.487 3.393 4.164 4.717 1.835 1.459 3.275 3.432 5.683 4.102q.927.239 1.557 1.284c-1.203-.237-2.01-.928-2.96-1.303a9.9 9.9 0 0 1-3.768-2.505c-1.322-1.46-2.762-2.842-4.143-4.263-.888-.928-1.894-1.776-2.15-3.117-.099-.533-.493-.848-.987-.672-.553.198-.316.831-.098 1.008 1.203 1.064 1.301 2.762 2.25 3.946 1.518 1.893 2.485 4.163 4.123 6.058 1.184 1.341 2.267 2.861 3.432 4.24 2.527 3 5.25 5.823 7.775 8.802q3.888 4.656 7.874 9.215a168 168 0 0 0 8.84 9.53q4.045 3.947 8.463 7.46a43.3 43.3 0 0 0 9.098 5.622c3.67 1.658 7.418 3.157 11.306 4.203.947.258 1.499 1.125 2.506 1.244 2.072.256 3.907 1.203 5.741 2.13.968.474 1.896 1.027 2.882 1.441a159 159 0 0 0 6.63 2.645c2.348.867 4.538 2.111 7.023 2.565 3.139.552 5.842 2.209 8.762 3.294 1.499.554 2.527 1.817 4.005 2.388 2.488.966 4.914 2.131 7.578 2.643 1.264.238 2.565.73 3.61 1.422 1.105.749 2.27 1.183 3.532 1.54 1.914.531 4.183.097 5.545 2.112.75 1.104 2.17 1.203 3.216 1.834a11.8 11.8 0 0 0 3.77 1.36c.414.08.729.198 1.085-.197.433-.493 0-.927-.138-1.202a9.9 9.9 0 0 0-3.375-3.237c-1.36-.848-2.822-1.558-3.65-3.256 1.618.83 2.625 2.328 4.439 2.901Zm10.655 230.311q.71-.472.751-1.184c0-2.032.513-4.005.71-6.018.237-2.702.355-5.406.632-8.09.433-4.144.493-8.288.71-12.431.295-5.86.197-11.72-.73-17.54-.553-3.435-.494-6.928-.692-10.38-.235-3.947-.235-7.894-1.163-11.8-.592-2.446-.77-5.011-1.303-7.478-.907-4.223-2.051-8.406-1.973-12.787a11.84 11.84 0 0 0-1.814-6.709 27.2 27.2 0 0 1-3.138-6.293c-1.184-3.315-3-6.413-3.75-9.887-.453-2.072-1.557-3.907-2.111-5.92-1.064-3.906-3.098-7.339-5.032-10.832-1.085-1.954-2.565-3.61-3.749-5.486-1.026-1.617-2.328-3.019-3.375-4.636-1.715-2.665-3.984-4.933-5.366-7.834-.178-.375-.553-.81-.927-.65-.79.354-.79-.198-.928-.632-.078-.256.099-.65-.493-.75.415 4.814 0 9.59-.099 14.344-.138 5.743-.493 11.465-.848 17.188-.177 2.781-.867 5.504-.966 8.287q-.197 4.538-.474 9.056a111 111 0 0 0-.237 12.57c.256 4.479.493 8.958 1.717 13.34.967 3.471 1.263 7.103 2.485 10.556 1.245 3.491 1.5 7.28 2.882 10.773 1.027 2.605 1.402 5.426 2.467 8.07a74 74 0 0 0 3.551 7.932c1.203 2.21 2.723 4.183 4.123 6.215 1.658 2.408 3.69 4.539 5.17 7.124 1.619 2.803 2.842 5.762 4.125 8.702 1.42 3.255 2.406 6.708 4.48 9.668a15.8 15.8 0 0 1 1.992 4.815 9.9 9.9 0 0 0 2.309 4.38c0-.454.04-.71 0-.966-.75-3.928-.592-7.973-1.5-11.88a59 59 0 0 1-1.361-8.108c-.238-2.545-1.54-4.776-1.816-7.282-.237-2.15-.433-4.301-1.026-6.413-.433-1.539-.553-3.176-.809-4.775.315.08.416.218.473.375 1.066 3 1.263 6.216 2.29 9.234.888 2.624 1.28 5.408 1.992 8.09.848 3.197 1.558 6.413 1.954 9.709.256 2.09.237 4.223.867 6.335m2.922-334.516c.256.277.63.178.966.138 5.268-.79 10.575-1.203 15.726-2.842 4.558-1.46 9.058-3.098 13.557-4.715 4.458-1.6 8.187-4.362 12.174-6.69 2.23-1.301 4.144-3.176 6.393-4.419 2.25-1.244 4.735-2.17 7.183-2.98 3.432-1.125 7.103-1.342 10.556-2.605 3.019-1.104 6.275-1.4 9.253-2.8 2.29-1.086 4.835-1.541 7.184-2.587 4.223-1.893 8.602-3.413 12.746-5.544 3.415-1.756 6.847-3.453 10.201-5.308 2.586-1.42 5.27-2.643 7.795-4.163 2.269-1.381 4.597-2.683 6.669-4.42a55 55 0 0 0 4.953-4.598c1.163-1.242 2.013-2.722 3.078-3.986a21.6 21.6 0 0 0 3.61-5.92c-.472-.237-.888-.077-1.32.04-2.784.672-5.525 1.44-8.328 1.894-4.084.672-8.148 1.224-12.174 2.29-4.816 1.263-9.749 2.112-14.621 3.157-4.994 1.085-10.084 1.696-15.057 2.979-2.9.75-5.84 1.243-8.701 2.17-3.216 1.046-6.61 1.54-9.885 2.566q-5.407 1.736-10.754 3.63c-1.54.534-3.256.75-4.559 1.62-2.368 1.578-5.071 2.287-7.597 3.314a69.2 69.2 0 0 0-13.457 7.143c-1.854 1.281-3.728 2.545-5.485 4.024-1.281 1.106-2.683 2.192-4.025 3.237a27.7 27.7 0 0 0-4.894 4.538q-1.243 1.558-2.702 2.94c-1.48 1.42-2.645 3.079-3.653 4.735-1.517 2.527-3.333 4.855-4.635 7.519-.888 1.816-1.738 3.63-2.21 5.603-.059.258-.178.554.197.652.294.078.592-.02.67-.316.357-1.44 1.46-2.289 2.428-3.275 1.993-2.032 3.966-4.066 6.214-5.821.416-.336 1.047-.454 1.383-.848 2.209-2.626 5.13-4.322 7.952-6.04 3.392-2.071 7.005-3.767 10.24-6.156 2.527-1.874 5.367-3.334 8.012-5.071.73-.473 1.52-1.38 2.723-1.025-1.776 1.322-3.435 2.683-5.349 3.67q-1.42.77-2.702 1.716c-2.426 1.736-5.052 3.158-7.498 4.875q-3.354 2.309-6.847 4.418a51 51 0 0 0-6.53 4.856c-1.344 1.163-2.606 2.445-3.888 3.63-1.658 1.54-3.592 2.782-4.933 4.776ZM393.486 660c.374-.098 1.104.355 1.28-.296.139-.533-.59-.692-.986-.946-2.248-1.344-4.755-2.112-7.2-2.922-3.237-1.085-6.491-2.051-9.709-3.237-1.795-.649-3.315-1.715-4.973-2.544-1.104-.533-2.309-.79-3.354-1.42-1.854-1.125-3.966-1.362-6.037-1.737-3.73-.691-7.52-.83-11.287-1.046-1.697-.098-3.434-.256-5.09-.04-4.894.632-9.789 1.224-14.384 3.277-2.152.966-4.482 1.42-6.69 2.347-5.013 2.13-10.26 3.631-15.292 5.762-2.33.987-4.816 1.658-7.144 2.723-2.072.946-4.282 1.557-6.413 2.407-4.991 1.954-9.826 4.224-14.759 6.295-.869.374-1.855.553-2.605 1.086-2.348 1.656-5.17 2.267-7.598 3.709-.275.157-.611.315-.531.67.058.296.394.317.671.336q1.264.058 2.525.335c2.389.572 4.814.928 7.2 1.461 2.843.63 5.784.888 8.546 1.854 2.545.888 5.17 1.6 7.813 1.954q7.973 1.046 16.023.75c4.517-.139 9.058.354 13.596.237.197 0 .395.237.61.277.396.059.83.176 1.206.078.965-.257 1.973-.355 2.96-.554 1.28-.255 2.584-.255 3.866-.611 2.506-.67 5.013-1.302 7.4-2.368 2.288-1.006 4.775-1.42 7.122-2.307 2.901-1.086 6.079-1.402 8.94-2.784 1.854-.888 3.965-1.322 5.701-2.388 2.35-1.46 5.032-1.99 7.478-3.195 1.56-.77 3.455-1.006 5.054-1.776a88 88 0 0 1 12.075-4.597c1.242-.395 2.485-.83 3.946-.77Zm166.398-96.312c-.65.317-1.125.474-1.54.73-3.038 1.776-5.68 4.104-8.542 6.157q-3.79 2.781-7.498 5.663c-1.935 1.48-3.79 3.038-5.781 4.42-1.797 1.244-3.592 2.564-5.21 3.985-1.6 1.402-3.394 2.545-4.973 4.006-1.618 1.5-3.413 2.86-4.992 4.42q-3 2.96-5.743 6.197a81 81 0 0 0-6.511 8.504 132 132 0 0 0-5.485 9.194c-1.875 3.514-3.472 7.164-5.19 10.754-.789 1.658-1.164 3.572-2.09 5.092-1.52 2.505-1.974 5.347-3.178 7.93-1.402 3.021-2.25 6.296-3.254 9.493-.751 2.389-1.56 4.736-2.626 6.984-.592 1.283-.75 2.683-1.46 3.927-1.638 2.842-2.566 6-4.006 8.96-1.677 3.432-2.84 7.162-4.616 10.556-1.008 1.913-1.658 3.926-2.488 5.899q-.117.394-.335.73c-1.44 1.658-1.42 3.808-2.072 5.741 1.085-.907 1.52-2.229 2.112-3.354 1.933-3.65 4.597-6.808 6.748-10.299.355-.573.416-1.343 1.046-1.696 1.933-1.066 2.447-3.218 3.77-4.777 1.874-2.19 3.293-4.774 4.893-7.162.946-1.42 2.13-2.624 3.077-4.025 1.322-1.973 2.94-3.73 4.5-5.506q1.795-2.13 3.748-4.162c1.54-1.579 2.724-3.552 4.303-5.093 1.341-1.301 2.426-2.82 3.669-4.181q2.723-2.941 5.387-5.94c1.954-2.19 4.103-4.262 5.762-6.65 1.144-1.638 2.405-3.196 3.551-4.835 1.144-1.637 2.565-3.116 3.768-4.736.888-1.184 1.757-2.485 2.96-3.453a17.8 17.8 0 0 0 3.928-4.32c.829-1.303 1.893-2.466 2.624-3.848.514-.986.868-2.092 1.578-2.96 1.6-1.993 2.666-4.34 3.907-6.55 1.994-3.514 3.295-7.381 4.933-11.07 1.145-2.586 2.447-5.071 3.551-7.657.395-.907.71-1.875 1.283-2.683 1.442-2.013 1.835-4.48 2.98-6.669-1.46 1.046-2.466 2.605-4.143 3.393 2.525-3.67 6.196-6.51 7.655-11.147Zm-.354 107.5c.789-.631 1.499-1.42 2.388-1.874 2.387-1.224 4.398-3 6.59-4.5q2.13-1.46 4.24-3.019c2.607-1.914 5.447-3.512 8.21-5.21.554-.334 1.106-1.32 1.874-.216.139.197.416.059.592-.099l2.17-2.032c.219-.216.337-.592.12-.869-.296-.374-.573 0-.79.16-.276.216-.492.493-.868.61-3.57 1.126-7.261 1.816-10.813 3.059-3.453 1.184-6.847 2.486-10.103 4.085q-4.144 1.992-8.208 4.163c-2.033 1.085-4.183 2.013-6.215 3.098-3.434 1.835-6.946 3.513-10.439 5.248q-4.026 1.973-8.031 4.066a201 201 0 0 1-6.827 3.453c-2.92 1.402-5.762 2.92-8.703 4.3a149 149 0 0 0-11.76 6.216l-6.452 3.71a84.8 84.8 0 0 0-16.535 12.313c-3.098 2.979-6.274 5.899-8.602 9.49-1.954 2.981-3.237 6.394-4.855 9.59-.888 1.756-1.736 3.553-2.803 5.268 1.54-.65 2.941-1.48 4.421-2.15q4.125-1.815 8.288-3.513c1.045-.433 2.19-.67 3.138-1.243 2.347-1.42 4.872-2.446 7.3-3.688a140 140 0 0 1 7.4-3.474c3.098-1.36 6.058-3.038 9.056-4.597 1.282-.672 2.703-1.105 3.847-1.915 1.915-1.341 4.045-2.23 6.058-3.333 3.139-1.717 6.57-2.922 9.65-4.736 1.854-1.106 3.787-2.093 5.563-3.355a106.6 106.6 0 0 1 14.287-9.116c2.072-1.125 4.282-2.032 6.295-3.256l7.103-4.263a57 57 0 0 0 9.096-7.2c2.21-2.133 4.203-4.48 6.335-6.69q2.267-2.328 4.459-4.717c1.48-1.597 2.722-3.432 4.361-4.912q.572-.554.849-1.282c-.632-.258-.987.098-1.224.453-.317.493-.848.79-1.303.907-2.328.571-4.163 1.994-6.078 3.296-.69.474-1.44.868-2.111 1.419q-2.19 1.719-4.558 3.159c-1.204.768-2.565 1.28-3.73 2.111q-1.223.868-2.722 1.086Zm32.498-78.553 9.293-1.006c3.256-.355 6.432-1.066 9.65-1.618 4.28-.73 8.621-1.104 12.864-2.19a197 197 0 0 0 17.897-5.407 80.8 80.8 0 0 0 21.35-11.602 37.6 37.6 0 0 0 7.735-7.143l.691-.79c1.243-1.578 2.486-3.157 3.531-4.874.71-1.183 1.283-2.445 2.013-3.63.158-.257.493-.553.317-.847-.237-.397-.672-.179-.968-.021-1.558.77-3.236 1.125-4.794 1.973-2.328 1.243-5.032 1.637-7.52 2.704-2.86 1.223-5.957 1.853-8.917 2.9q-3.513 1.243-7.164 1.875c-1.28.217-2.267 1.125-3.53 1.163-1.816.08-3.532.651-5.27 1.067a126 126 0 0 1-14.423 2.584c-4.242.493-8.505.692-12.748 1.007-2.86.216-5.722.235-8.583.395q-4.933.256-9.746 1.32c-1.68.376-3.218 1.106-4.757 1.835a37.6 37.6 0 0 0-7.3 4.38c-.375.297-.632.693-1.065.95a21.6 21.6 0 0 0-5.29 4.655c-1.696 2.131-3.63 4.104-5.01 6.57q-1.6 2.902-3.435 5.723c-.216.317-.67.65-.315 1.066.295.336.809.158 1.164.04 2.132-.751 4.34-.375 6.492-.493 2.861-.139 5.663-.613 8.426-1.205 2.762-.61 5.485-1.36 9.412-1.36Zm-122.595 95.819c1.282-2.29 1.757-4.794 2.269-7.202.986-4.698 1.343-9.511 2.683-14.148.692-2.427 1.107-4.954 2.25-7.223 1.343-2.683 2.231-5.525 3.354-8.288 1.757-4.36 1.994-9.114 2.683-13.732a27.7 27.7 0 0 0 0-9.688 54 54 0 0 1-.907-7.855c-.315-4.773-.099-9.549-.059-14.324l.08-19.338c0-2.25.176-4.5.04-6.748-.12-1.973-.573-3.926-.888-5.88-.08-.512.138-1.283-.455-1.402-.395-.078-.907.455-1.36.751a1.9 1.9 0 0 0-.454.513c-1.146 1.914-2.645 3.591-3.434 5.703-.257.67-.454 1.42-.888 1.952-1.558 1.994-1.894 4.6-3.355 6.65-1.045 1.461-1.263 3.375-2.053 4.954-1.736 3.453-2.09 7.3-3.472 10.853-1.301 3.333-1.618 6.965-2.466 10.437-.632 2.565-.77 5.268-.968 7.913-.294 3.867-.432 7.734-.63 11.602-.159 3.197-.632 6.373-.652 9.59 0 4.577 1.658 8.937 1.52 13.535-.078 2.644.394 5.308.335 7.953-.08 4.104.355 8.109 1.144 12.116.179.886.218 1.814.533 2.643 1.224 3.176 1.757 6.53 2.585 9.807l.986 3.926.336-.038c.453-3.829 1.144-7.616 1.283-11.485v6.432ZM335.713 416.37a23.7 23.7 0 0 0 7.3 1.342c.966.02 1.913.277 2.841.434 3.354.611 6.709 1.203 10.122 1.499 2.743.237 5.506.455 8.17 1.085 2.032.475 4.005.888 6.077.909 2.349.04 4.696.04 7.005.256 3.197.315 6.354.808 9.45 1.894 2.943 1.007 6.098 1.42 9.196 1.895 2.17.315 4.362.512 6.552.83 1.419.196 2.86.293 4.261.61 2.565.611 5.092 1.44 7.599 2.23 3.45 1.085 7.061 1.599 10.418 3.177 2.821 1.321 5.386 2.96 7.911 4.736 1.145.808 2.25 1.696 3.966 2.328-.512-.77-.512-1.303-.808-1.835q-1.598-2.86-3.256-5.663a11.25 11.25 0 0 0-4.717-4.56 8 8 0 0 1-1.499-.906 25.6 25.6 0 0 0-6.826-3.768c-2.33-.888-4.795-1.323-7.085-2.429-3.04-1.459-6.413-1.992-9.668-2.762-3.473-.827-7.104-.454-10.637-.848-4.32-.494-8.66-.769-12.964-1.52-3.018-.531-6.058-.79-9.056-1.44s-5.82-1.952-8.938-2.15c-8.959-.573-17.878-1.757-26.875-.848q-4.223.473-8.426 1.065c-.294.04-.69.117-.79.432-.138.397.198.634.435.909.533.65 1.42.73 1.954 1.421 1.558 1.973 3.827 3.117 5.86 4.38 2.625 1.62 5.289 3.315 8.446 4.006 1.736.376 3.512 1.026 5.032 1.954 3.472 2.112 6.944 4.144 11.008 4.952 1.007.198 1.994.571 2.98.87 2.683.807 5.19 2.189 8.05 2.504 1.777.197 3.573.533 5.23 1.184 2.407.927 4.777 1.914 7.361 2.013 4.597.178 9.195.335 13.773.237 3.413-.08 6.786.237 10.143.57q3.49.397 6.944.377c2.17 0 4.34-.217 6.511-.473 2.23-.258 4.518-.06 6.768-.16 1.679-.077 3.375.198 5.13-.197-1.263-1.28-2.899-1.736-4.28-2.565-2.565-1.518-5.546-2.229-8.386-3.115-2.31-.732-4.757-1.008-7.085-1.719-.986-.315-1.756-1.006-2.802-1.222a43 43 0 0 0-6.432-.79q-2.605-.178-5.21-.434-2.445-.218-4.775-.947c-2.19-.71-4.478-.908-6.688-1.46-3.197-.809-6.354-1.856-9.788-1.717-2.861.138-5.76-.277-8.643-.533-3.53-.335-7.004-1.222-10.497-1.776-6.353-.987-12.707-1.974-18.943-3.512-.395-.099-.808-.099-1.341-.73Zm.69 425.953c.315.512.849.237 1.243.433 2.763 1.322 5.762 2.073 8.485 3.532 1.499.79 3.295 1.067 4.755 1.934 2.527 1.48 5.407 2.053 8.05 3.276 2.349 1.105 4.933 1.717 7.321 2.84 2.664 1.264 5.072 2.883 7.34 4.657 1.046.83 2.23 1.757 2.9 2.842 1.047 1.658 2.704 2.665 3.79 4.263.394.592 1.34.79 1.796 1.36 1.142 1.421 2.8 2.133 4.182 3.218 1.007.808 2.309 1.42 3.276 2.288 1.973 1.757 4.419 2.368 6.787 3.019 2.466.692 5.111.986 7.361 2.112 2.25 1.104 4.499 2.269 6.61 3.749 1.913 1.362 3.808 2.802 5.821 4.064.334.218.75.277 1.006.652 1.46 2.15 2.92 4.28 5.584 5.13.355.118.612.473.888.769 1.223 1.341 2.96 1.835 4.5 2.683-1.717-4.102-4.777-7.162-7.637-10.358a17.8 17.8 0 0 1 4.064 3.294c-.671-1.558-.789-3.216-1.578-4.715-.513-.967-1.203-1.855-1.54-2.94a27.7 27.7 0 0 0-4.46-8.07c-2.367-3.178-5.149-6.039-7.32-9.353-.73-1.105-1.676-1.955-2.426-2.96-.77-1.046-1.933-1.757-2.427-3a11.84 11.84 0 0 0-4.105-4.696 57 57 0 0 1-4.182-3.669 24.67 24.67 0 0 0-13.004-6.69 74.4 74.4 0 0 0-10.674-1.282c-3.277-.158-6.413-1.184-9.69-1.382-3.768-.237-7.498-.888-11.285-.829-5.447.08-10.479 1.579-15.393 3.79Zm124.981-370.487c1.816-.414 2.822-1.854 4.263-2.307 2.406-.77 4.44-2.33 6.808-3.12 1.952-.65 3.294-2.307 5.168-3.037 2.112-.81 3.79-2.368 5.626-3.592q2.84-1.914 5.523-4.143c1.834-1.54 3.908-2.803 5.743-4.341 1.558-1.302 2.92-2.822 4.419-4.224 1.303-1.222 2.586-2.525 3.612-3.906 1.104-1.5 2.387-2.861 3.491-4.362 1.421-1.99 3-3.926 4.362-5.937 1.42-2.112 3.157-3.986 4.362-6.236q.334-.651.787-1.203c1.165-1.343 2.072-2.94 2.92-4.44l4.085-7.223c.317-.57.317-1.341.909-1.755.334-.237.789-.592.374-.928-.454-.375-.71.139-1.006.534-1.579 2.032-3.157 4.064-5.21 5.701-1.28 1.026-2.565 2.13-3.67 3.335a49.3 49.3 0 0 1-7.793 6.787q-2.92 2.093-5.763 4.282-2.88 2.25-5.466 4.914c.494-1.933 2.072-2.94 3.395-4.183 1.341-1.283 3.058-2.053 4.5-3.157a99 99 0 0 0 6.845-5.781q4.677-4.283 9.255-8.682c2.822-2.744 5.051-5.96 7.853-8.683.374-.375.79-.946.71-1.54-2.288.987-4.301 2.37-6.373 3.652-.672.414-1.46.65-2.09 1.184-1.995 1.677-4.382 2.702-6.533 4.123s-4.362 2.723-6.352 4.263c-1.482 1.142-3.139 1.992-4.579 3.237-1.855 1.616-4.084 2.8-6.137 4.2-2.467 1.68-4.973 3.355-7.261 5.29-1.579 1.32-3.157 2.624-4.637 4.064q-1.954 1.915-3.848 3.888c-2.13 2.17-3.986 4.557-5.86 6.885a49.3 49.3 0 0 0-4.795 7.066c-1.362 2.426-2.152 5.05-3.296 7.536-.907 1.954-1.203 4.183-2.111 6.117a45 45 0 0 0-2.23 5.722m16.121-163.695c-.138.986-1.005 1.499-1.282 2.349-1.165 3.392-3.098 6.412-4.518 9.687a55.4 55.4 0 0 0-3.295 12.511c-.376 2.19.235 4.341.493 6.512.454 3.866 1.755 7.437 3.098 11.05 1.518 4.024 4.241 7.3 6.432 10.91 1.736 2.841 3.038 5.861 4.637 8.76 1.402 2.566 2.368 5.389 3.137 8.25q.415 1.696.75 3.432c.77-2.288.948-4.656 1.321-6.984.613-3.79.416-7.636.376-11.484-.059-4.855.415-9.69-1.066-14.463-1.381-4.48-1.342-9.236-2.643-13.754-.848-2.92-1.421-5.86-2.624-8.702-1.54-3.65-2.231-7.635-3.12-11.523-.493-2.17-.925-4.38-1.696-6.511Zm127.469 48.994c-2.152.197-4.006 1.204-6.059 1.42-.986.1-1.992.1-2.939.356-3.591 1.026-7.3 1.341-10.95 1.994-6.829 1.222-13.794 1.203-20.72 1.616-4.834.277-9.689.395-14.504 1.106-4.478.67-8.917 1.579-13.082 3.472-.947.435-2.011.672-2.821 1.264-2.072 1.499-4.459 2.446-6.61 3.789a102 102 0 0 0-9.866 7.082c.81.238 1.42-.077 2.032-.276 1.026-.315 2.072-1.004 3.079-.966 2.821.098 5.445-1.027 8.229-1.144s5.524-.81 8.306-.928c6.077-.237 12.154-.571 18.252-.433 5.09.118 10.023-.97 14.917-2.27a149 149 0 0 0 10.537-3.296c2.723-.926 5.248-2.308 7.912-3.355 2.013-.789 4.106-1.558 5.86-2.939q2.467-1.895 5.013-3.73c1.144-.848 2.723-1.203 3.414-2.762M325.807 475.29c.099.455.078.613.158.692 2.13 2.07 4.34 4.064 6.373 6.214 1.599 1.696 3.255 3.336 4.815 5.072 1.459 1.618 3.038 3.177 4.379 4.855a29.6 29.6 0 0 0 6.768 6.096c3.236 2.151 5.862 4.933 8.742 7.44 1.993 1.735 3.928 3.471 6.157 4.913q2.486 1.656 4.715 3.63 2.092 1.815 4.303 3.354 2.406 1.717 4.557 3.71c1.992 1.834 4.322 3.217 6.335 5.012.611.533 1.558.571 1.99 1.322.95 1.619 2.666 2.427 3.93 3.75 1.301 1.36 2.92 2.564 4.339 3.887 1.205 1.104 2.626 1.795 3.888 2.762 1.678 1.281 3.513 2.289 4.933 3.947.927 1.085 2.052 2.032 2.743 3.413.355-.415.256-.692.176-.947a27.7 27.7 0 0 0-4.024-7.559 99 99 0 0 0-5.999-7.122q-2.328-2.565-4.261-5.426c-.533-.77-.947-1.678-1.6-2.27-1.696-1.557-2.939-3.53-4.794-4.991-1.264-.987-2.389-2.328-3.67-3.216-2.013-1.421-3.572-3.375-5.743-4.578l-.374-.395c-1.164-1.637-2.842-2.802-4.202-4.263a47 47 0 0 0-3.888-3.808 78 78 0 0 0-4.695-3.728c-3.02-2.231-6.256-4.144-9.335-6.296-2.17-1.52-4.4-2.94-6.49-4.617-1.58-1.281-3.494-2.289-5.328-3.275a256 256 0 0 0-10.38-5.248c-1.46-.693-2.998-1.224-4.518-2.35Zm101.441 203.595c.237-1.125-.099-2.151-.118-3.178-.02-1.776-.789-2.643-2.466-3.333-1.224-.494-1.342 0-1.283 1.005.177 3.867.256 7.735.454 11.602.138 2.783.415 5.565.61 8.346.022.376.08.81.435.928.395.12.533-.315.592-.592q.888-3.453 1.638-6.925c.553-2.624.415-5.269.119-7.834Zm135.558-79.54c-1.42-.118-4.775 2.151-5.248 3.256Z"/><path d="M406.903 651.18c-1.144-.906-2.605-1.242-3.709-2.17 1.302.632 2.8.928 3.71 2.17m-3.414 100.06c.65 5.072 2.842 9.69 4.163 14.879-1.342-1.558-4.577-11.997-4.163-14.878m76.915-222.358a10.85 10.85 0 0 1 5.938-2.782c-2.21.454-3.749 2.31-5.938 2.782m85.122-27.646c0-1.183.949-1.578 1.52-2.229.178-.197.493-.294.73-.099.315.257.118.651-.059.83-.612.591-1.106 1.38-2.17 1.498Zm-14.7 75.259c-1.48 3.274-4.24 5.504-6.67 7.991a37.6 37.6 0 0 1 6.67-7.991m-7.102 8.978c-1.54 1.341-2.328 3.255-3.77 4.637 1.106-1.678 1.856-3.611 3.77-4.637M504.28 703.886c-.197.57-.81.592-1.204.829-1.48.926-3.038 1.795-4.42 2.821-2.268 1.677-4.756 3.019-7.124 4.499l-7.2 4.42c-2.053 1.264-4.322 2.17-6.196 3.768-1.067.907-2.723.968-3.454 2.406-.098.179-.474.121-.592-.078-.157-.256.139-.394.295-.512 2.172-1.6 4.303-3.216 6.59-4.639 2.763-1.715 5.782-2.977 8.486-4.734 2.111-1.38 4.263-2.703 6.276-4.223 1.163-.888 2.702-1.44 3.906-2.25q1.894-1.243 3.907-2.248c.197-.1.415-.198.75-.04Zm43.134-26.344c2.13-1.302 4.124-2.782 6.473-3.649.827-.317 1.577-.848 2.366-1.243.277-.138.653-.257.77.198q.04.453-.432.571c-2.666.81-4.975 2.349-7.5 3.434Zm-33.742 20.384c-2.525 1.518-4.616 3.75-7.597 4.539 2.389-1.738 4.757-3.533 7.599-4.539m6.965-4.599c1.163-1.696 2.96-2.328 4.754-2.978-1.618.946-3.037 2.19-4.754 2.978m-50.476 32.539q.493-1.736 2.27-1.835Zm7.893-142.563c-.374 5.504-2.368 10.378-2.446 15.548-.218-3.077 1.006-13.2 2.446-15.548m.02-1.302c-.455-2.309.77-4.44.553-6.828.79 1.066.394 5.053-.554 6.828M335.02 416.115c-.237.16-.276.218-.316.218-.809-.098-1.558-.355-2.051-1.045-.021-.04.117-.277.176-.277.888-.02 1.381.671 2.191 1.104m127.745 53.297 13.338-14.522.494.452c-4.4 4.895-8.603 9.985-13.437 14.484Zm16.336-16.654a27.7 27.7 0 0 1 5.821-5.764 21.6 21.6 0 0 1-5.82 5.764m14.246-14.405c-.986 1.342-1.795 2.603-3.197 3.393-.75.415-.907 1.52-1.677 2.053-.256.178-.531.533-.79.277-.373-.357.1-.573.317-.831 1.243-1.537 2.723-2.839 4.144-4.182.294-.277.533-.632 1.203-.69Z"/></g><path d="M461.097 1081.263h-17.655v-1.47q1.644-.537 3.167-.918 1.541-.381 3.012-.554l.589-32.61-6.768-1.28v-1.714h17.655v1.523q-1.35.415-2.943.796t-3.357.571v32.714l6.3 1.177Zm-24.96 0h-17.706v-1.592q1.644-.52 3.202-.848t3.098-.502l.589-32.61-6.889-1.28v-1.714h17.707v1.523q-1.402.415-2.995.796t-3.184.571v32.714l6.179 1.177Zm16.306-18h-24.89v-3.359h24.89Zm41.61 18h-17.828v-1.592q1.644-.52 3.202-.848t3.08-.502l.59-32.61-6.872-1.28v-1.714h17.828v1.523q-1.42.415-3.03.796-1.626.381-3.27.571v32.714l6.3 1.177Zm60.372-35.656.537 32.714 6.594 1.177v1.765h-18.14v-1.592q1.663-.52 3.272-.848 1.627-.33 3.202-.502v-33.596l.658.104-14.885 36.434h-2.475l-14.124-35.95.64-.069-.52 33.077 7.357 1.177v1.765h-17.603v-1.592q1.644-.52 3.237-.848t3.185-.502l1.177-32.61-7.132-1.28v-1.714h13.415l12.721 32.61h-1.246l13.432-32.61h13.24v1.523q-1.418.415-3.063.796t-3.479.571m43.272-2.89 13.12 35.846q1.125.225 2.146.502 1.039.26 2.043.554v1.644H599.34v-1.644l6.076-1.125-11.77-34.012h1.229l-12.238 33.839q1.818.294 3.549.623 1.748.312 3.513.675v1.644h-15.006v-1.644l3.998-1.298 13.414-35.604Zm6.768 25.773h-19.767v-3.116h19.767Zm45.071 13.24q-9.485 0-14.625-5.053-5.158-5.072-5.158-14.54 0-6.3 2.51-10.766 2.492-4.483 7.165-6.889 4.69-2.406 11.216-2.406 2.233 0 4.916.347t5.383 1.004l-1.35 3.998q-2.527-.762-5.158-1.143-2.614-.38-5.262-.38-3.116 0-6.266.64t-6.144 1.887l3.115-1.54q-2.475 3.357-3.738 7.217t-1.264 8.204q0 7.72 3.964 11.84 3.98 4.119 11.164 4.119 2.18 0 4.587-.415t5.123-1.247l1.229 3.6q-3.168.762-6.024 1.143t-5.383.38m11.407-1.522h-5.002l.242-15.25-8.118-1.228v-1.766h18.001v1.523q-1.125.416-2.406.762-1.298.363-2.717.588Zm0-25.306h-1.818l-3.306-11.475h5.124Zm38.079 26.361h-17.828v-1.592q1.644-.52 3.202-.848t3.098-.502l.589-32.61-6.889-1.28v-1.714h17.828v1.523q-1.42.415-3.03.796-1.626.381-3.27.571v32.714l6.3 1.177Zm46.197-10.645 1.523 7.65 5.712 1.23v1.765h-10.35l-1.94-10.714q-.588-3.461-2.128-4.829-1.523-1.35-4.76-1.35h-9.71v-3.289h12.289q3.306-1.54 4.829-3.479 1.54-1.938 1.54-4.534 0-3.29-2.163-5.176-2.146-1.886-5.85-1.886h-8.464v32.315l6.283 1.177v1.765h-17.828v-1.592q.952-.467 2.527-.796 1.592-.312 3.825-.554l.537-32.61-6.89-1.28v-1.714h20.892q5.47 0 8.776 2.596 3.288 2.58 3.288 6.82 0 3.652-2.354 6.473t-6.23 3.947q2.82.71 4.378 2.613 1.558 1.922 2.268 5.452m38.892 10.645h-17.828v-1.592q1.645-.52 3.203-.848 1.575-.33 3.098-.502l.588-32.61-6.889-1.28v-1.714h17.828v1.523q-1.402.415-3.029.796-1.61.381-3.254.571v32.714l6.283 1.177Zm61.152-36.833v-1.713h16.72v1.523q-1.592.485-3.133.83-1.523.347-3.115.537l-.052 35.656h-5.072l-22.466-33.96 1.107-.345v31.363l7.235 1.177v1.765h-17.29v-1.592q1.591-.52 3.15-.848t3.08-.502l.589-32.61-6.89-1.28v-1.714h11.84l22.536 34.08-1.004.295-.589-31.554Zm52.376-1.713 13.12 35.846q1.125.225 2.146.502 1.039.26 2.043.554v1.644h-15.665v-1.644l6.058-1.125-11.77-34.012h1.247l-12.238 33.839q1.818.294 3.549.623 1.748.312 3.513.675v1.644h-15.006v-1.644l3.998-1.298 13.414-35.604Zm6.768 25.773H884.64v-3.116h19.767Zm50.022-24.06v-1.713h16.72v1.523q-1.592.485-3.133.83-1.523.347-3.115.537l-.052 35.656h-5.072l-22.466-33.96 1.107-.345v31.363l7.235 1.177v1.765h-17.291v-1.592q1.592-.52 3.15-.848t3.081-.502l.589-32.61-6.89-1.28v-1.714h11.84l22.536 34.08-1.004.295-.589-31.554Zm30.948-1.713h20.84q5.175 0 8.965 2.302 3.808 2.285 5.885 6.49 2.095 4.207 2.095 9.919 0 5.954-2.199 10.385-2.215 4.448-6.179 6.958-3.98 2.492-9.156 2.492h-20.251v-1.592q1.367-.467 2.942-.814 1.593-.363 3.427-.536l.52-32.61-6.89-1.28Zm9.485 35.258h14.124q4.465-2.008 6.767-6.006 2.285-3.999 2.285-9.953 0-4.171-.9-7.183-.917-2.994-2.63-4.933-1.697-1.939-3.93-2.908-2.25-.986-4.95-.986h-10.766l2.06-1.99v35.95Zm66.136-35.258 13.138 35.846q1.107.225 2.146.502 1.021.26 2.025.554v1.644h-15.647v-1.644l6.058-1.125-11.77-34.012h1.229l-12.237 33.839q1.817.294 3.565.623 1.731.312 3.497.675v1.644h-15.007v-1.644l3.998-1.298 13.415-35.604Zm6.768 25.773H1048v-3.116h19.766Zm50.022-24.06v-1.713h16.72v1.523q-1.592.485-3.115.83-1.54.347-3.116.537l-.07 35.656h-5.053l-22.484-33.96 1.125-.345v31.363l7.235 1.177v1.765h-17.309v-1.592q1.593-.52 3.15-.848t3.099-.502l.588-32.61-6.889-1.28v-1.714h11.822l22.536 34.08-.987.295-.588-31.554Z"/></g><path fill="transparent" stroke="transparent" stroke-width="1.795" d="M250 285.907h1000v928.186H250z"/></g></svg>